<svg width="221" height="83" viewBox="0 0 221 83" fill="none" xmlns="http://www.w3.org/2000/svg">
<path d="M49.5865 35.8674C48.1052 34.3212 45.8282 33.5363 42.8247 33.5363C40.0268 33.5363 36.8674 33.8481 33.4369 34.4589C31.8085 34.7492 30.235 35.1126 28.7306 35.5449C29.193 35.2395 29.652 34.932 30.1056 34.6244C31.9148 33.4008 34.0447 31.7664 36.4368 29.7643C38.8396 27.7536 40.9376 25.7665 42.6706 23.859C44.4337 21.9214 45.9629 19.7129 47.2157 17.2957C48.4986 14.8183 49.1489 12.4033 49.1489 10.1195C49.1489 6.09801 46.1844 4.05933 40.3369 4.05933C36.8993 4.05933 32.8149 4.79265 28.199 6.23779C23.599 7.67862 19.185 9.53021 15.0741 11.7474C10.9401 13.9753 7.37844 16.6505 4.49015 19.7042C1.51148 22.8504 0 25.973 0 28.9815C0 30.1707 0.372112 31.418 1.10748 32.6847C1.79322 33.8696 2.65794 35.0588 3.67327 36.218C4.65317 37.3384 5.70571 38.6158 6.80078 40.0157C7.87104 41.3835 8.84917 43.0286 9.70857 44.9081C10.568 46.7812 11.2431 48.8887 11.7162 51.1726C12.1858 53.4284 12.2779 56.252 11.9909 59.5681C11.702 62.9057 10.9507 66.6003 9.75464 70.5679L9.67845 70.8454C9.23014 71.9744 9.59516 72.6668 9.85387 72.983L9.91766 73.0496C10.1657 73.2754 10.4617 73.3593 10.7523 73.2862C11.2076 73.1722 11.6152 72.7034 12.0387 71.8066L24.1181 39.7125C30.1641 37.4739 36.2011 36.3362 42.0681 36.3362C46.7443 36.3362 49.0177 38.4072 49.0177 42.6695C49.0177 47.05 46.638 53.179 41.9458 60.8778C39.0203 65.5874 34.4983 70.0174 28.502 74.0432C22.5216 78.0603 17.569 80.0968 13.7841 80.0968C9.85387 80.0968 7.17821 78.6216 5.61002 75.5851C4.02766 72.5249 3.58467 68.5099 4.29168 63.6648C4.3289 63.4347 4.34662 63.2476 4.34662 63.0928C4.34662 62.4821 4.19068 62.0541 3.88591 61.824C3.68568 61.6735 3.34723 61.5552 2.83336 61.867C2.19368 62.3036 1.81449 62.9982 1.72943 63.9379C1.69931 65.4756 1.69222 67.0691 1.7064 68.6777C1.72234 70.3852 1.97928 72.1056 2.47365 73.7894C2.96272 75.4582 3.59885 76.9851 4.36611 78.3248C5.16349 79.7205 6.36665 80.8646 7.94192 81.7248C9.49062 82.5721 11.337 83 13.4261 83C16.2684 83 19.7255 82.0409 23.7017 80.1484C27.6497 78.2667 31.5657 75.7033 35.3453 72.5249C39.1408 69.3336 42.1726 65.9637 44.3646 62.5014C49.3349 54.4349 51.8546 47.6909 51.8546 42.4523C51.8582 39.6566 51.0945 37.4416 49.5865 35.8674ZM32.4145 16.5796C32.3347 16.3624 32.1682 16.0484 31.8138 15.9151C30.4848 15.4118 23.055 36.7083 23.055 36.7083C16.4367 41.2781 14.8508 41.8501 14.4805 41.8888L14.1952 41.6501L13.8461 42.0093C13.3499 42.5189 13.0558 43.1039 12.9743 43.7512C12.9034 44.3533 13.1302 44.678 13.272 44.8178C13.6831 45.2221 14.259 45.0372 14.6577 44.8587L14.8189 44.7512C16.2436 43.4157 18.5063 42.0566 21.5559 40.6996L13.9382 60.1595C14.1367 58.0542 14.1757 56.0779 14.0516 54.2478C13.8266 50.9145 13.2932 48.0887 12.4711 45.8479C11.6542 43.6286 10.6353 41.5813 9.43923 39.7641C8.25024 37.9556 7.0967 36.4567 6.01403 35.3062C3.3366 31.9256 4.08082 28.5708 4.08082 28.5708C5.41157 20.7343 14.8845 15.2957 16.3375 14.5022C16.403 14.4678 16.4651 14.4312 16.5306 14.399C20.1312 12.5431 23.9427 10.9818 27.8712 9.71301C31.144 8.74743 40.7267 6.40553 43.4928 11.1452C43.4928 11.1452 46.4236 15.1366 38.9495 23.2182C36.7008 25.5042 34.3672 27.6891 32.0034 29.7105C30.0985 31.3406 28.1121 32.9427 26.0797 34.4889L32.3578 17.9172L32.3702 17.8849C32.5332 17.3817 32.5491 16.943 32.4145 16.5796Z" fill="current"/>
<path d="M104.877 57.3229C104.623 57.2025 104.336 57.2347 104.001 57.4197L103.902 57.4885C101.379 59.7121 99.4139 60.7616 98.0566 60.5852C97.6331 60.5336 97.4683 60.3164 97.3814 60.1573C97.167 59.7637 96.9172 58.6691 97.6561 55.7681C98.372 53.1273 99.0577 50.837 99.7098 48.8972C100.043 47.5532 99.5539 46.994 99.2314 46.779C98.8592 46.5338 98.255 46.422 97.4931 47.2843C97.2468 47.5618 96.5468 48.4843 93.3378 53.2972C90.99 56.8175 89.1347 59.3766 87.8288 60.8927C86.4183 62.4863 85.7202 62.8002 85.426 62.8411C85.4313 62.6497 85.4934 62.1787 85.8726 61.1874C88.9983 53.4305 90.889 48.8886 91.495 47.6865L91.5517 47.5317C91.6651 47.0887 91.6456 46.7123 91.4985 46.4091C91.4082 46.2242 91.2257 45.9833 90.8677 45.8973C90.2351 45.751 89.6592 45.9768 89.1932 46.5446L89.1082 46.6779C88.0361 48.865 86.3882 52.7681 84.2016 58.31C83.9092 58.7852 83.4662 59.5272 82.8372 60.5938C81.9742 62.0583 81.2566 63.2153 80.7055 64.0368C80.1916 64.8002 79.4793 65.5271 78.5863 66.1959C78.3772 66.3529 78.1734 66.484 77.9732 66.5894C75.0902 66.598 76.747 59.4691 77.4132 56.7143C81.8803 38.2436 89.6273 22.246 93.2616 15.33C92.7088 14.6784 92.039 13.9193 91.2841 13.1215C78.1131 38.0178 73.6389 58.7895 73.6389 58.7917C72.6449 59.7444 71.626 60.4841 70.5965 60.9895C69.2232 61.6648 68.0732 61.9164 67.1571 61.7314C66.544 61.6347 66.1542 61.3508 65.9291 60.8368C65.4543 59.753 65.456 57.0734 68.1919 50.4305C68.4418 49.6843 68.7164 48.6177 68.238 47.9209C68.1459 47.7704 68.0325 47.6542 67.9067 47.579L68.1299 46.9919L67.7596 47.5102C67.6976 47.4887 67.6355 47.4779 67.57 47.4736C67.0986 47.4284 66.7194 47.9144 66.482 48.265C66.0248 48.9359 65.3958 49.7488 64.6055 50.6951C64.5825 50.065 64.4637 49.5682 64.2493 49.1918C64.0154 48.7811 63.6681 48.5187 63.2499 48.4349C62.0432 48.1704 60.6682 48.5187 59.1673 49.4671C57.725 50.3768 56.3499 51.6714 55.0723 53.3273C54.6471 53.9144 54.321 54.3789 54.0924 54.7229L53.1533 56.1423C52.7156 56.8003 52.4179 57.3466 52.2425 57.8111C52.083 58.2326 51.9289 58.7057 51.7836 59.2175C51.6011 59.8626 51.5887 60.4476 51.7464 60.9529C51.9041 61.4583 52.2106 61.8734 52.6465 62.183C55.0263 63.9637 58.8165 61.4497 64.1855 54.4993C63.1277 58.1186 62.9735 60.7013 63.7107 62.34C64.1944 63.4131 65.0343 64.0583 66.1985 64.254C66.4714 64.3077 66.7549 64.3335 67.0508 64.3335C68.215 64.3335 69.5599 63.9228 71.1334 63.0905C71.828 62.7228 72.4801 62.3207 73.0896 61.8841C72.9798 62.7615 72.9177 63.5723 72.9177 64.2927C72.9177 67.8905 74.2715 69.0152 75.3808 69.3184C75.8096 69.4625 76.2384 69.5335 76.6637 69.5335C77.1439 69.5335 77.6205 69.441 78.0883 69.2603C78.9513 68.9249 79.8001 68.2625 80.6116 67.2948C81.3753 66.3851 82.015 65.555 82.5129 64.8325C82.6192 64.6776 82.7344 64.5013 82.8531 64.3163C82.8833 64.4002 82.9045 64.4905 82.9453 64.5658C83.1934 65.0497 83.5938 65.3529 84.1431 65.4755C84.2937 65.5056 84.4461 65.5185 84.6021 65.5185C85.9009 65.5185 87.4337 64.4948 89.2623 62.4024C90.1926 61.3422 91.1459 60.1508 92.0992 58.8584C93.0578 57.5573 94.2043 55.8907 95.5085 53.9036C95.5244 53.8799 95.5404 53.8541 95.5563 53.8305C95.3968 54.3875 95.225 54.9896 95.0407 55.6348C94.7182 56.7315 94.525 57.7638 94.4648 58.7186C94.3957 60.1508 94.642 61.2562 95.1948 62.0045C95.6892 62.6733 96.4122 63.0411 97.33 63.097C99.467 63.2927 101.966 61.9959 104.967 59.1723C105.194 59.0024 105.338 58.7874 105.392 58.5272C105.442 58.2992 105.416 58.0562 105.318 57.839C105.229 57.5939 105.072 57.4132 104.877 57.3229ZM62.1814 53.523C56.132 60.454 54.663 60.3272 54.3884 60.1831C54.3901 60.0583 54.4398 59.682 54.8526 58.8175C55.3842 57.7014 56.1479 56.4864 57.1066 55.2262C58.1325 53.981 59.1567 52.9617 60.1472 52.1983C61.2831 51.323 61.8873 51.2047 62.2045 51.2585C62.2488 51.2649 62.2559 51.2757 62.2683 51.295C62.3108 51.3682 62.5004 51.8198 62.1814 53.523Z" fill="current"/>
<path d="M116.142 8.03775C112.514 -0.740601 104.95 0.016379 104.95 0.016379C100.391 0.487339 97.559 3.46364 94.5254 7.54529C94.5254 7.54529 97.4934 10.7689 96.5844 9.75815C97.5501 8.45065 99.1927 6.34102 100.539 5.22706C109.417 -2.12981 116.142 8.03775 116.142 8.03775Z" fill="current"/>
<path d="M211.55 31.5771C211.55 31.5771 206.798 31.5255 205.709 31.5771L200.111 31.8589L199.859 31.9212C199.195 32.1341 198.603 32.5406 198.532 33.1965C198.414 34.4395 199.246 34.7642 199.601 34.7642L204.394 34.5663C204.394 34.5663 205.179 34.4674 206.345 34.4008C198.892 46.5253 194.77 58.0498 193.615 61.5616C193.394 62.2347 193.615 62.6605 193.615 62.6605C193.987 63.2304 194.692 63.0799 195.031 62.1035C203.96 36.4093 211.55 31.5771 211.55 31.5771Z" fill="current"/>
<path d="M220.437 32.1126L220.427 32.104C220.177 31.9018 219.76 31.5663 215.029 31.6287C214.491 32.2825 213.777 33.7534 213.243 34.4889C217.381 34.3899 218.922 34.5684 219.418 34.7727C219.863 35.0416 220.528 34.8373 220.804 34.3211C221.089 33.7771 221.137 32.6997 220.437 32.1126Z" fill="current"/>
<path d="M199.009 42.506L199.473 42.4157L199.535 42.3985C200.459 42.0609 200.597 41.291 200.597 40.8609C200.597 40.4308 200.446 40.1706 200.319 40.0286C200.129 39.8136 199.872 39.719 199.559 39.7362C199.544 39.7362 199.53 39.7362 199.514 39.7362C198.453 39.7362 197.262 40.4351 195.88 41.8673C195.524 42.2351 195.169 42.635 194.817 43.0673C195.586 41.091 196.133 39.7168 196.449 38.9663C196.592 38.676 196.769 38.2373 196.644 37.7964C196.571 37.5427 196.412 37.3491 196.195 37.2502L196.077 37.2136C195.586 37.1298 195.113 37.3556 194.673 37.8889L194.579 38.0416C194.142 39.0007 193.44 40.6781 192.488 43.0393C190.459 43.0867 188.431 42.7404 186.437 41.9964C186.077 41.7512 185.618 41.6286 185.041 41.6222C184.229 41.4523 183.253 42.063 181.998 43.5404C180.854 44.8888 179.849 46.45 179.009 48.1855C178.812 48.6027 178.642 49.0027 178.499 49.3876C177.397 49.3081 175.75 49.4629 173.504 49.8693C173.975 49.2005 174.462 48.4565 174.962 47.6414C176.076 45.7662 176.807 44.0866 177.133 42.6437C177.432 41.2974 177.361 40.2996 176.916 39.5942C176.521 38.9684 175.866 38.6523 174.96 38.6523C172.625 38.6953 169.786 41.0996 166.35 45.9705L170.785 35.6803C171.083 35.0932 171.352 34.418 171.101 33.8717C171.035 33.7298 170.833 33.3965 170.41 33.3965H170.408C170.018 33.3707 169.453 33.5191 168.95 34.4158L168.909 34.4975C168.113 36.4502 166.052 41.3921 162.781 49.1812C160.379 49.2952 158.497 49.407 157.177 49.5188C157.109 48.8349 156.943 48.2307 156.681 47.7167C156.142 46.349 155.15 45.1705 153.73 44.2157C152.352 43.291 150.794 42.592 149.097 42.1404C147.722 41.7727 146.23 41.405 144.66 41.0437H144.667C137.864 39.5598 134.935 37.4244 133.695 36.0309C133.08 35.3405 132.805 34.2846 133.009 33.2976C134.556 25.7816 143.324 20.6397 147.865 18.4397C151.037 16.9752 154.304 15.7365 157.606 14.7753C161.274 13.7065 164.631 13.1 167.56 12.9689C168.455 12.9689 168.638 13.2355 168.666 13.2871C168.726 13.4033 168.716 13.7129 168.505 14.2462C168.25 14.9172 167.381 16.4785 164.695 20.0956C163.547 21.6504 162.716 22.8225 162.232 23.5708C160.71 25.8181 158.857 28.9966 160.334 30.6481L160.43 30.7557L160.554 30.8008C161.19 31.0309 161.766 30.8804 162.237 30.3492C162.569 29.9471 162.555 29.5836 162.484 29.3514C162.429 29.1708 162.307 28.9578 162.034 28.8503C162.035 28.8073 162.041 28.745 162.055 28.6654C162.154 28.1708 162.76 26.7213 165.702 22.5709C168.278 18.9817 169.852 16.6333 170.511 15.3925C171.531 13.5086 171.81 12.1882 171.39 11.242C171.058 10.4979 170.339 10.1216 169.247 10.1216C166.088 10.1216 162.454 10.6743 158.442 11.7624C154.443 12.8484 150.488 14.3301 146.683 16.1688C142.865 18.0139 139.372 20.3601 136.303 23.1386C133.193 25.9557 131.063 28.9665 129.961 32.1169C129.334 34.1642 129.275 35.8438 129.784 37.1083C130.28 38.3448 131.272 39.3921 132.731 40.2179C134.116 41.0028 135.697 41.5942 137.432 41.977C139.128 42.3512 140.949 42.7662 142.898 43.22C144.839 43.6716 146.665 44.1232 148.326 44.5619C149.933 44.9856 151.361 45.6458 152.57 46.5275C153.711 47.3597 154.446 48.3618 154.754 49.5038L154.783 49.6113L154.838 49.7016C154.864 49.7468 154.87 49.7726 154.871 49.7812C154.875 49.7962 154.877 49.8134 154.88 49.8349C147.419 50.665 140.749 52.4284 135.047 55.0757C130.161 57.3488 126.377 60.1681 123.795 63.4498C121.156 66.8046 119.914 69.9723 120.104 72.869C120.203 74.2862 120.658 75.4969 121.458 76.4646C122.234 77.4065 123.292 78.0818 124.599 78.471C125.235 78.6603 125.955 78.7549 126.752 78.7549C127.564 78.7549 128.457 78.656 129.424 78.4624C131.313 78.0797 133.394 77.2947 135.605 76.1291C137.437 75.1786 139.542 73.7485 141.863 71.8754C144.174 70.0088 146.446 67.9271 148.613 65.6863C150.794 63.4304 152.713 60.9896 154.317 58.437C155.818 56.0477 156.739 53.8478 157.065 51.8908C158.284 51.7553 159.874 51.6328 161.796 51.5252C161.775 51.5747 161.755 51.622 161.734 51.6715C157.852 60.9079 155.412 66.8153 154.483 69.2325L154.444 69.3357L154.434 69.4475C154.404 69.7787 154.416 70.0518 154.467 70.2862C154.526 70.5378 154.655 70.7378 154.836 70.8475C154.914 70.8948 155.022 70.9378 155.157 70.9378C155.251 70.9378 155.357 70.9163 155.476 70.8626C155.71 70.755 155.965 70.5077 156.301 70.0647L156.365 69.9809L156.402 69.8755C156.509 69.583 157.487 67.1228 161.523 57.1165C161.975 56.2284 162.702 54.9682 163.68 53.3725C164.662 51.7704 165.858 49.9296 167.234 47.9016C168.59 45.9017 169.999 44.1856 171.418 42.8028C173.078 41.1835 174.065 40.8931 174.613 40.9448C174.877 40.9598 175.033 41.0308 175.074 41.1577C175.118 41.291 175.16 41.62 174.951 42.3146C174.753 42.9748 174.492 43.6501 174.18 44.3189C173.853 45.0221 173.434 45.8565 172.942 46.7898C172.286 48.007 171.48 49.2457 170.544 50.4715C168.849 50.8994 167.373 51.4242 166.138 52.0392C165.663 52.2973 165.241 52.5919 164.871 52.9209C163.838 53.8693 163.453 54.8069 163.722 55.7037C164.043 56.7854 165.016 57.0069 166.628 56.3553C168.29 55.6198 170.029 54.1746 171.797 52.0564C174.195 51.5725 176.277 51.3188 177.987 51.2887C177.935 51.6241 177.909 51.9489 177.909 52.2629C177.909 53.6542 178.573 54.5359 179.767 54.7424C180.026 54.7962 180.283 54.822 180.537 54.822C181.731 54.822 182.877 54.237 183.956 53.0736C185.193 51.7403 186.148 50.1124 186.797 48.235C187.24 46.9834 187.477 45.8393 187.506 44.8178C189.003 45.1985 190.358 45.364 191.574 45.3318C191.273 46.0888 190.954 46.8952 190.615 47.7533C188.677 52.6693 187.44 55.7402 186.94 56.8778L186.896 56.9789L186.882 57.0929C186.822 57.566 186.882 57.9531 187.063 58.2477C187.174 58.4284 187.385 58.6585 187.761 58.7187L187.835 58.7251C188.4 58.7251 188.813 58.3337 188.983 57.6413C189.217 57.2004 189.531 56.4972 189.942 55.4972C190.367 54.465 190.692 53.7037 190.911 53.2263C192.29 50.0887 193.842 47.4715 195.524 45.4415C197.636 42.8867 198.614 42.506 199.009 42.506ZM153.383 56.1166C152.387 57.9466 151.126 59.7359 149.634 61.4326C148.12 63.1487 146.446 64.8325 144.656 66.439C142.861 68.0497 141.109 69.4669 139.448 70.654C137.788 71.8389 136.301 72.7851 135.027 73.4668C134.838 73.5679 134.655 73.6518 134.467 73.7464L134.802 73.5378C129.633 76.2453 126.883 75.7356 125.239 74.8281C123.875 74.0754 123.159 72.2733 123.378 70.4733C123.938 65.8712 127.527 62.4648 128.877 61.3294C130.845 59.7358 133.195 58.3101 135.911 57.0735C141.247 54.6929 147.615 53.022 154.85 52.1016C154.661 53.3209 154.17 54.6671 153.383 56.1166ZM166.074 54.2929L166.068 54.2951C166.012 54.3166 165.959 54.3359 165.909 54.3531C166.099 54.2048 166.368 54.0306 166.751 53.8349C167.059 53.6521 167.403 53.4757 167.784 53.3058C167.201 53.7574 166.63 54.0865 166.074 54.2929ZM184.674 47.8414L184.667 47.8629C184.219 49.1747 183.536 50.3188 182.636 51.2607C181.795 52.1446 181.034 52.5532 180.427 52.4693C180.29 52.4392 180.244 52.179 180.29 51.6973C180.368 50.8908 180.675 49.9446 181.217 48.8565C181.701 47.7833 182.269 46.7812 182.904 45.8823C183.505 45.035 184.018 44.4587 184.433 44.1727C184.743 44.035 185.121 43.9254 185.236 44.149C185.411 44.4952 185.572 45.4415 184.674 47.8414Z" fill="current"/>
<path d="M139.446 70.6519L134.8 73.5357C136.17 72.8196 137.709 71.8776 139.446 70.6519Z" fill="#EACCC7"/>
</svg>
