<svg width="92" height="28" viewBox="0 0 92 28" fill="none" xmlns="http://www.w3.org/2000/svg">
<path d="M20.6424 12.3991C20.0258 11.8873 19.0779 11.6275 17.8276 11.6275C16.6628 11.6275 15.3476 11.7307 13.9195 11.9329C13.2416 12.029 12.5865 12.1492 11.9603 12.2923C12.1528 12.1912 12.3439 12.0895 12.5327 11.9877C13.2858 11.5826 14.1725 11.0417 15.1683 10.379C16.1686 9.71341 17.042 9.05569 17.7634 8.42431C18.4973 7.78296 19.1339 7.05193 19.6555 6.25184C20.1895 5.43183 20.4602 4.63246 20.4602 3.87651C20.4602 2.54541 19.2261 1.87061 16.7919 1.87061C15.3609 1.87061 13.6606 2.11334 11.739 2.59168C9.82404 3.06859 7.98655 3.68147 6.2752 4.41535C4.55426 5.15279 3.07158 6.03829 1.86921 7.04907C0.629216 8.09046 0 9.12402 0 10.1199C0 10.5135 0.154907 10.9263 0.461032 11.3456C0.746503 11.7378 1.10648 12.1315 1.52915 12.5151C1.93707 12.886 2.37524 13.3088 2.83111 13.7722C3.27665 14.2249 3.68383 14.7694 4.04159 15.3916C4.39935 16.0116 4.6804 16.7091 4.87735 17.4651C5.07283 18.2118 5.11119 19.1464 4.99169 20.244C4.87145 21.3488 4.55868 22.5717 4.06077 23.885L4.02905 23.9768C3.84243 24.3505 3.99438 24.5797 4.10208 24.6843L4.12863 24.7064C4.2319 24.7811 4.35509 24.8089 4.47607 24.7847C4.66564 24.747 4.8353 24.5918 5.0116 24.295L10.0402 13.6718C12.557 12.9308 15.0702 12.5543 17.5126 12.5543C19.4592 12.5543 20.4057 13.2398 20.4057 14.6506C20.4057 16.1005 19.415 18.1292 17.4617 20.6775C16.2438 22.2364 14.3613 23.7028 11.8651 25.0353C9.37555 26.3649 7.31381 27.039 5.73819 27.039C4.10208 27.039 2.98822 26.5507 2.3354 25.5456C1.67668 24.5327 1.49227 23.2038 1.78659 21.6C1.80208 21.5239 1.80946 21.4619 1.80946 21.4107C1.80946 21.2085 1.74454 21.0669 1.61767 20.9907C1.53431 20.9409 1.39342 20.9017 1.1795 21.005C0.913212 21.1495 0.755355 21.3794 0.719947 21.6904C0.707407 22.1994 0.704456 22.7268 0.710357 23.2593C0.716996 23.8245 0.823956 24.3939 1.02976 24.9513C1.23335 25.5036 1.49817 26.009 1.81757 26.4525C2.14952 26.9145 2.65038 27.2932 3.30615 27.5779C3.95086 27.8583 4.71949 28 5.58918 28C6.77238 28 8.21153 27.6825 9.86682 27.0561C11.5103 26.4333 13.1405 25.5848 14.7139 24.5327C16.294 23.4764 17.5561 22.361 18.4686 21.2149C20.5377 18.5449 21.5866 16.3127 21.5866 14.5787C21.5881 13.6533 21.2702 12.9201 20.6424 12.3991ZM13.4939 6.01481C13.4607 5.94291 13.3913 5.83899 13.2438 5.79485C12.6906 5.62829 9.59758 12.6774 9.59758 12.6774C6.84245 14.19 6.18226 14.3794 6.02809 14.3922L5.90933 14.3132L5.76401 14.432C5.55747 14.6007 5.43501 14.7944 5.40108 15.0086C5.37158 15.2079 5.466 15.3154 5.52501 15.3617C5.69614 15.4955 5.93588 15.4343 6.10185 15.3752L6.16898 15.3396C6.76205 14.8976 7.70403 14.4477 8.97353 13.9985L5.80236 20.4398C5.88498 19.7429 5.90121 19.0887 5.84957 18.483C5.75589 17.3797 5.53386 16.4443 5.19159 15.7026C4.85153 14.968 4.42738 14.2904 3.92947 13.6889C3.4345 13.0903 2.95429 12.5941 2.50359 12.2133C1.389 11.0943 1.69881 9.9839 1.69881 9.9839C2.25279 7.39004 6.19627 5.58985 6.80115 5.32719C6.82844 5.3158 6.85426 5.3037 6.88155 5.29302C8.38046 4.67873 9.96714 4.16195 11.6025 3.74198C12.965 3.42237 16.9542 2.6472 18.1057 4.21604C18.1057 4.21604 19.3257 5.53718 16.2143 8.21219C15.2782 8.96885 14.3067 9.69205 13.3227 10.3612C12.5297 10.9007 11.7028 11.431 10.8568 11.9428L13.4703 6.45755L13.4754 6.44688C13.5433 6.28032 13.5499 6.1351 13.4939 6.01481Z" fill="#B39365"/>
<path d="M43.6575 19.5008C43.552 19.4609 43.4325 19.4716 43.2931 19.5328L43.2518 19.5556C42.2014 20.2916 41.3833 20.639 40.8183 20.5806C40.642 20.5635 40.5734 20.4917 40.5373 20.439C40.448 20.3087 40.344 19.9464 40.6516 18.9862C40.9496 18.112 41.2351 17.354 41.5065 16.7119C41.6452 16.267 41.4416 16.0819 41.3074 16.0108C41.1525 15.9296 40.9009 15.8926 40.5837 16.178C40.4812 16.2699 40.1898 16.5752 38.8539 18.1683C37.8766 19.3335 37.1042 20.1806 36.5606 20.6824C35.9734 21.2099 35.6828 21.3138 35.5603 21.3273C35.5625 21.264 35.5884 21.1081 35.7462 20.7799C37.0474 18.2124 37.8345 16.7091 38.0868 16.3112L38.1104 16.2599C38.1576 16.1133 38.1495 15.9887 38.0883 15.8883C38.0506 15.8271 37.9747 15.7474 37.8257 15.7189C37.5623 15.6705 37.3226 15.7453 37.1286 15.9332L37.0932 15.9773C36.6469 16.7012 35.9609 17.9932 35.0506 19.8275C34.9289 19.9848 34.7445 20.2304 34.4826 20.5835C34.1234 21.0682 33.8246 21.4512 33.5952 21.7231C33.3813 21.9758 33.0848 22.2164 32.713 22.4378C32.626 22.4897 32.5411 22.5331 32.4578 22.568C31.2576 22.5709 31.9473 20.2112 32.2247 19.2994C34.0843 13.1856 37.3093 7.89036 38.8222 5.60115C38.5921 5.38547 38.3132 5.1342 37.999 4.87012C32.516 13.1108 30.6535 19.9863 30.6535 19.987C30.2396 20.3023 29.8155 20.5472 29.3869 20.7145C28.8152 20.938 28.3365 21.0212 27.9551 20.96C27.6999 20.928 27.5376 20.834 27.444 20.6639C27.2463 20.3052 27.247 19.4182 28.3859 17.2194C28.4899 16.9724 28.6043 16.6194 28.4051 16.3887C28.3668 16.3389 28.3195 16.3005 28.2672 16.2756L28.3601 16.0812L28.2059 16.2528C28.1801 16.2457 28.1543 16.2421 28.127 16.2407C27.9308 16.2257 27.7729 16.3866 27.6741 16.5026C27.4838 16.7247 27.2219 16.9938 26.8929 17.307C26.8833 17.0984 26.8339 16.934 26.7447 16.8094C26.6473 16.6735 26.5027 16.5866 26.3286 16.5589C25.8263 16.4713 25.2539 16.5866 24.6291 16.9005C24.0286 17.2016 23.4562 17.6302 22.9244 18.1782C22.7473 18.3726 22.6116 18.5263 22.5164 18.6402L22.1255 19.11C21.9433 19.3278 21.8194 19.5086 21.7463 19.6624C21.6799 19.8019 21.6158 19.9585 21.5553 20.1279C21.4793 20.3415 21.4741 20.5351 21.5398 20.7023C21.6054 20.8696 21.7331 21.007 21.9145 21.1095C22.9052 21.6989 24.483 20.8668 26.7181 18.5662C26.2777 19.7642 26.2135 20.6191 26.5204 21.1615C26.7218 21.5167 27.0714 21.7302 27.5561 21.795C27.6697 21.8128 27.7877 21.8213 27.9109 21.8213C28.3955 21.8213 28.9554 21.6854 29.6104 21.4099C29.8996 21.2882 30.171 21.1551 30.4248 21.0106C30.3791 21.301 30.3532 21.5693 30.3532 21.8078C30.3532 22.9987 30.9168 23.371 31.3786 23.4713C31.5571 23.519 31.7356 23.5425 31.9126 23.5425C32.1125 23.5425 32.311 23.5119 32.5057 23.4521C32.865 23.3411 33.2183 23.1218 33.5561 22.8015C33.8741 22.5004 34.1403 22.2256 34.3476 21.9865C34.3919 21.9352 34.4398 21.8768 34.4893 21.8156C34.5018 21.8434 34.5107 21.8733 34.5276 21.8982C34.6309 22.0584 34.7976 22.1587 35.0263 22.1993C35.089 22.2093 35.1524 22.2135 35.2173 22.2135C35.758 22.2135 36.3961 21.8747 37.1573 21.1821C37.5446 20.8312 37.9415 20.4368 38.3383 20.009C38.7374 19.5784 39.2147 19.0267 39.7576 18.369C39.7642 18.3612 39.7708 18.3526 39.7775 18.3448C39.7111 18.5292 39.6395 18.7285 39.5628 18.942C39.4286 19.3051 39.3482 19.6467 39.3231 19.9628C39.2943 20.4368 39.3969 20.8027 39.627 21.0504C39.8328 21.2718 40.1338 21.3935 40.5159 21.412C41.4055 21.4768 42.4456 21.0476 43.6951 20.113C43.7896 20.0567 43.8493 19.9856 43.8722 19.8994C43.8928 19.824 43.8818 19.7435 43.8412 19.6716C43.8043 19.5905 43.7387 19.5307 43.6575 19.5008ZM25.8838 18.243C23.3655 20.5372 22.754 20.4952 22.6396 20.4475C22.6404 20.4062 22.661 20.2817 22.8329 19.9955C23.0542 19.6261 23.3721 19.2239 23.7712 18.8068C24.1983 18.3946 24.6246 18.0572 25.037 17.8045C25.5098 17.5148 25.7614 17.4757 25.8934 17.4935C25.9118 17.4956 25.9148 17.4992 25.92 17.5056C25.9377 17.5298 26.0166 17.6793 25.8838 18.243Z" fill="#B39365"/>
<path d="M48.3482 3.18666C46.8383 0.281913 43.6892 0.532397 43.6892 0.532397C41.7912 0.688238 40.6125 1.67309 39.3496 3.02371C39.3496 3.02371 40.5852 4.0904 40.2068 3.75594C40.6088 3.32329 41.2926 2.62522 41.8532 2.25661C45.5488 -0.177776 48.3482 3.18666 48.3482 3.18666Z" fill="#B39365"/>
<path d="M88.0675 10.979C88.0675 10.979 86.0897 10.9619 85.636 10.979L83.3058 11.0723L83.201 11.0929C82.9244 11.1634 82.678 11.2979 82.6485 11.515C82.5991 11.9265 82.9458 12.0339 83.0933 12.0339L85.0887 11.9685C85.0887 11.9685 85.4155 11.9357 85.9008 11.9136C82.7983 15.9269 81.0825 19.7415 80.6015 20.9039C80.5093 21.1267 80.6015 21.2676 80.6015 21.2676C80.7564 21.4563 81.05 21.4064 81.1909 21.0833C84.9079 12.5785 88.0675 10.979 88.0675 10.979Z" fill="#B39365"/>
<path d="M91.7663 11.1562L91.7619 11.1533C91.6579 11.0864 91.4846 10.9754 89.515 10.996C89.2908 11.2124 88.9935 11.6992 88.7715 11.9426C90.4939 11.9099 91.1357 11.969 91.3422 12.0366C91.5273 12.1255 91.804 12.0579 91.919 11.8871C92.0378 11.707 92.0577 11.3505 91.7663 11.1562Z" fill="#B39365"/>
<path d="M82.8457 14.5966L83.039 14.5667L83.0648 14.561C83.4491 14.4492 83.5066 14.1944 83.5066 14.052C83.5066 13.9097 83.4439 13.8235 83.3908 13.7766C83.3119 13.7054 83.2049 13.6741 83.0744 13.6798C83.0685 13.6798 83.0626 13.6798 83.0559 13.6798C82.6141 13.6798 82.1184 13.9111 81.543 14.3852C81.3947 14.5069 81.2472 14.6393 81.1004 14.7824C81.4206 14.1282 81.6485 13.6733 81.7798 13.4249C81.8395 13.3288 81.9133 13.1836 81.8609 13.0377C81.8307 12.9537 81.7643 12.8896 81.6743 12.8569L81.6249 12.8448C81.4206 12.817 81.2236 12.8918 81.0407 13.0683L81.0016 13.1188C80.8194 13.4363 80.5273 13.9915 80.1311 14.7731C79.2865 14.7888 78.4419 14.6742 77.6121 14.4279C77.4623 14.3467 77.2713 14.3062 77.0308 14.304C76.6929 14.2478 76.2865 14.4499 75.7642 14.939C75.2877 15.3853 74.8695 15.902 74.5198 16.4765C74.4379 16.6146 74.3671 16.747 74.3074 16.8744C73.8486 16.8481 73.1633 16.8993 72.2279 17.0338C72.4242 16.8125 72.627 16.5662 72.835 16.2964C73.299 15.6757 73.6029 15.1198 73.7386 14.6421C73.8633 14.1965 73.8338 13.8663 73.6487 13.6328C73.4842 13.4256 73.2112 13.321 72.8343 13.321C71.8621 13.3352 70.6803 14.131 69.25 15.7433L71.0964 12.3373C71.2203 12.1429 71.3324 11.9194 71.2277 11.7386C71.2004 11.6916 71.1163 11.5813 70.94 11.5813H70.9393C70.777 11.5728 70.5417 11.6219 70.3322 11.9187L70.3152 11.9458C69.984 12.5921 69.1261 14.2279 67.7644 16.8061C66.7642 16.8438 65.9808 16.8808 65.4312 16.9178C65.4032 16.6915 65.3339 16.4914 65.2247 16.3213C65.0004 15.8686 64.5873 15.4785 63.9965 15.1625C63.4226 14.8564 62.7742 14.625 62.0675 14.4756C61.4951 14.3538 60.874 14.2321 60.2205 14.1125H60.2234C57.3916 13.6214 56.1722 12.9146 55.6559 12.4533C55.3999 12.2248 55.2856 11.8753 55.3704 11.5486C56.0144 9.06077 59.6643 7.35882 61.5549 6.63063C62.8753 6.14588 64.2355 5.73587 65.6097 5.41769C67.1367 5.06392 68.5345 4.86319 69.7539 4.81977C70.1264 4.81977 70.2023 4.90803 70.2141 4.92512C70.2392 4.96355 70.2348 5.06605 70.147 5.24258C70.0408 5.46467 69.6794 5.98145 68.5611 7.17873C68.0831 7.69337 67.7371 8.08131 67.5357 8.32903C66.9021 9.07287 66.1305 10.1249 66.7457 10.6716L66.7855 10.7072L66.8372 10.7222C67.102 10.7983 67.3417 10.7485 67.538 10.5727C67.6759 10.4396 67.67 10.3193 67.6405 10.2424C67.6176 10.1826 67.5667 10.1121 67.4531 10.0765C67.4539 10.0623 67.4561 10.0417 67.462 10.0153C67.5033 9.8516 67.7556 9.37184 68.9801 7.99803C70.0526 6.81001 70.7076 6.0327 70.982 5.62198C71.4069 4.99843 71.5227 4.56138 71.3479 4.24818C71.21 4.00189 70.9105 3.87732 70.4561 3.87732C69.1409 3.87732 67.6279 4.06026 65.9579 4.42044C64.293 4.7799 62.6466 5.27034 61.0628 5.87895C59.4732 6.48969 58.0193 7.26628 56.7417 8.18595C55.4471 9.11843 54.5605 10.115 54.1016 11.1578C53.8405 11.8354 53.8162 12.3914 54.0279 12.8099C54.2344 13.2192 54.6475 13.5659 55.2546 13.8392C55.8314 14.099 56.4894 14.2948 57.2116 14.4215C57.9175 14.5453 58.6758 14.6827 59.4872 14.8329C60.295 14.9824 61.0555 15.1319 61.7467 15.2771C62.4157 15.4173 63.0102 15.6358 63.5133 15.9277C63.9884 16.2031 64.2945 16.5349 64.4229 16.9128L64.4346 16.9484L64.4575 16.9783C64.4686 16.9933 64.4708 17.0018 64.4715 17.0047C64.473 17.0096 64.4737 17.0153 64.4752 17.0224C61.369 17.2972 58.5925 17.8809 56.2187 18.7571C54.185 19.5095 52.6094 20.4427 51.5346 21.529C50.4362 22.6394 49.9191 23.6879 49.9981 24.6467C50.0394 25.1158 50.229 25.5166 50.5616 25.8369C50.8847 26.1487 51.3251 26.3722 51.8695 26.501C52.1343 26.5636 52.4338 26.595 52.7657 26.595C53.1036 26.595 53.4754 26.5622 53.8781 26.4982C54.6645 26.3715 55.5305 26.1116 56.4511 25.7258C57.2138 25.4112 58.0901 24.9379 59.0564 24.3179C60.0183 23.7 60.964 23.011 61.8662 22.2692C62.7742 21.5226 63.5731 20.7146 64.2406 19.8697C64.8654 19.0789 65.249 18.3507 65.3847 17.7029C65.8922 17.6581 66.5539 17.6175 67.3543 17.5819C67.3454 17.5983 67.3373 17.614 67.3285 17.6303C65.7123 20.6876 64.6965 22.643 64.31 23.443L64.2938 23.4772L64.2893 23.5142C64.2768 23.6238 64.282 23.7142 64.3033 23.7918C64.3277 23.8751 64.3815 23.9413 64.4568 23.9776C64.4892 23.9933 64.5342 24.0075 64.5903 24.0075C64.6294 24.0075 64.6737 24.0004 64.7231 23.9826C64.8204 23.947 64.9267 23.8651 65.0668 23.7185L65.0934 23.6908L65.1089 23.6559C65.1531 23.5591 65.5603 22.7447 67.2407 19.4327C67.4288 19.1387 67.7312 18.7216 68.1384 18.1934C68.5471 17.6631 69.045 17.0538 69.6181 16.3825C70.1824 15.7205 70.7689 15.1525 71.3597 14.6948C72.0509 14.1588 72.4618 14.0627 72.6897 14.0798C72.7996 14.0848 72.8645 14.1083 72.8815 14.1503C72.8999 14.1944 72.9176 14.3033 72.8306 14.5332C72.748 14.7517 72.6395 14.9753 72.5097 15.1966C72.3733 15.4294 72.1992 15.7056 71.9941 16.0145C71.7212 16.4174 71.3855 16.8274 70.9961 17.2331C70.2901 17.3748 69.6757 17.5485 69.1615 17.7521C68.9638 17.8375 68.7883 17.935 68.6341 18.0439C68.2041 18.3578 68.044 18.6682 68.1561 18.965C68.2896 19.323 68.6946 19.3964 69.3658 19.1807C70.0578 18.9372 70.7814 18.4589 71.5176 17.7578C72.5156 17.5976 73.3824 17.5136 74.0942 17.5036C74.0728 17.6147 74.0617 17.7222 74.0617 17.8261C74.0617 18.2866 74.3384 18.5785 74.8355 18.6468C74.9432 18.6646 75.0502 18.6732 75.1557 18.6732C75.6529 18.6732 76.1301 18.4795 76.5793 18.0944C77.0942 17.6531 77.4918 17.1143 77.7618 16.4929C77.9462 16.0786 78.0451 15.6999 78.0569 15.3618C78.6802 15.4878 79.2445 15.5426 79.7505 15.5319C79.6251 15.7825 79.4923 16.0494 79.3514 16.3334C78.5444 17.9606 78.0296 18.9771 77.8215 19.3536L77.8031 19.3871L77.7972 19.4248C77.7721 19.5814 77.7972 19.7096 77.8724 19.8071C77.9189 19.8669 78.0067 19.943 78.1631 19.963L78.1941 19.9651C78.4294 19.9651 78.6012 19.8355 78.6721 19.6063C78.7694 19.4604 78.9 19.2277 79.0711 18.8967C79.2482 18.555 79.3832 18.303 79.4746 18.145C80.0485 17.1064 80.6947 16.2402 81.3947 15.5682C82.274 14.7226 82.6812 14.5966 82.8457 14.5966ZM63.8519 19.1017C63.4373 19.7074 62.9121 20.2997 62.291 20.8613C61.6611 21.4293 60.964 21.9867 60.219 22.5184C59.4717 23.0515 58.7422 23.5206 58.051 23.9135C57.3598 24.3058 56.7409 24.619 56.2106 24.8446C56.1316 24.8781 56.0557 24.9058 55.9775 24.9371L56.1169 24.8681C53.9652 25.7643 52.8203 25.5956 52.1358 25.2952C51.5678 25.046 51.2698 24.4495 51.3613 23.8538C51.5944 22.3305 53.0881 21.2029 53.6502 20.8271C54.4697 20.2997 55.4478 19.8277 56.5787 19.4184C58.7997 18.6304 61.4508 18.0774 64.4627 17.7727C64.3838 18.1763 64.1794 18.6219 63.8519 19.1017ZM69.135 18.498L69.1328 18.4988C69.1092 18.5059 69.087 18.5123 69.0664 18.518C69.1453 18.4689 69.2574 18.4112 69.4167 18.3464C69.5451 18.2859 69.6882 18.2276 69.8468 18.1713C69.6041 18.3208 69.3666 18.4297 69.135 18.498ZM76.8781 16.3626L76.8751 16.3697C76.6885 16.8039 76.4045 17.1826 76.0298 17.4944C75.6794 17.7869 75.363 17.9222 75.1099 17.8944C75.0531 17.8845 75.034 17.7983 75.0531 17.6389C75.0856 17.3719 75.2132 17.0587 75.4389 16.6986C75.6403 16.3434 75.8771 16.0117 76.1412 15.7141C76.3912 15.4337 76.6052 15.2429 76.7778 15.1482C76.9069 15.1027 77.064 15.0664 77.1119 15.1404C77.185 15.255 77.2521 15.5682 76.8781 16.3626Z" fill="#B39365"/>
<path d="M58.0513 23.9128L56.1172 24.8674C56.6874 24.6304 57.3284 24.3186 58.0513 23.9128Z" fill="#B39365"/>
</svg>
