<svg width="324" height="175" viewBox="0 0 324 175" fill="none" xmlns="http://www.w3.org/2000/svg">
<path d="M83.7164 68.6738C81.7496 66.7147 78.7264 65.7201 74.7387 65.7201C71.0239 65.7201 66.8291 66.1152 62.2744 66.8891C60.1123 67.2569 58.0231 67.7174 56.0257 68.2651C56.6398 67.8782 57.2491 67.4885 57.8514 67.0989C60.2534 65.5484 63.0813 63.4775 66.2574 60.9407C69.4476 58.393 72.2331 55.8752 74.534 53.4583C76.8749 51.0032 78.9052 48.2048 80.5686 45.1421C82.2719 42.003 83.1353 38.943 83.1353 36.0492C83.1353 30.9538 79.1993 28.3706 71.4356 28.3706C66.8714 28.3706 61.4486 29.2998 55.3199 31.1309C49.2125 32.9565 43.352 35.3026 37.8939 38.1119C32.4051 40.9349 27.6763 44.3246 23.8415 48.1939C19.8867 52.1803 17.8799 56.1368 17.8799 59.9489C17.8799 61.4557 18.3739 63.0361 19.3503 64.6411C20.2608 66.1425 21.4089 67.6493 22.7569 69.118C24.0579 70.5376 25.4554 72.1562 26.9093 73.9301C28.3303 75.6631 29.629 77.7476 30.77 80.1291C31.9111 82.5024 32.8074 85.1728 33.4356 88.0666C34.059 90.9249 34.1814 94.5027 33.8003 98.7044C33.4168 102.933 32.4192 107.615 30.8312 112.642L30.73 112.993C30.1348 114.424 30.6195 115.301 30.963 115.702L31.0477 115.786C31.377 116.073 31.7699 116.179 32.1558 116.086C32.7604 115.942 33.3015 115.348 33.8638 114.211L49.9018 73.5459C57.929 70.7093 65.9445 69.2678 73.7341 69.2678C79.9427 69.2678 82.9612 71.8919 82.9612 77.2925C82.9612 82.843 79.8016 90.6089 73.5718 100.364C69.6876 106.331 63.6836 111.944 55.7222 117.045C47.782 122.135 41.2064 124.716 36.1811 124.716C30.963 124.716 27.4105 122.847 25.3284 118.999C23.2275 115.122 22.6393 110.034 23.578 103.895C23.6274 103.604 23.6509 103.367 23.6509 103.17C23.6509 102.397 23.4439 101.854 23.0392 101.563C22.7734 101.372 22.324 101.222 21.6418 101.617C20.7925 102.17 20.289 103.051 20.1761 104.241C20.1361 106.19 20.1267 108.209 20.1455 110.247C20.1667 112.41 20.5078 114.59 21.1642 116.724C21.8135 118.838 22.6581 120.773 23.6768 122.47C24.7355 124.239 26.3329 125.689 28.4245 126.778C30.4807 127.852 32.9321 128.394 35.7059 128.394C39.4795 128.394 44.0696 127.179 49.3489 124.781C54.5906 122.397 59.79 119.149 64.8082 115.122C69.8475 111.078 73.8729 106.808 76.7831 102.421C83.3823 92.2002 86.7278 83.655 86.7278 77.0173C86.7325 73.475 85.7185 70.6684 83.7164 68.6738ZM60.9169 44.2347C60.811 43.9595 60.5899 43.5616 60.1193 43.3927C58.3548 42.7551 48.4902 69.7392 48.4902 69.7392C39.7031 75.5295 37.5974 76.2544 37.1057 76.3034L36.727 76.001L36.2635 76.456C35.6047 77.1018 35.2142 77.8429 35.106 78.6631C35.0119 79.4261 35.313 79.8375 35.5012 80.0146C36.047 80.5269 36.8116 80.2926 37.341 80.0664L37.5551 79.9302C39.4466 78.238 42.4509 76.5159 46.4998 74.7966L36.3858 99.4537C36.6493 96.7861 36.7011 94.2819 36.5364 91.9631C36.2376 87.7396 35.5294 84.1591 34.4378 81.3198C33.3532 78.5078 32.0005 75.9138 30.4124 73.6113C28.8338 71.3197 27.3022 69.4204 25.8648 67.9627C22.3099 63.6792 23.298 59.4284 23.298 59.4284C25.0649 49.4991 37.6421 42.6079 39.5713 41.6025C39.6583 41.5589 39.7407 41.5125 39.8277 41.4717C44.6083 39.1201 49.6689 37.1419 54.8847 35.5342C59.23 34.3108 71.9532 31.3434 75.6256 37.349C75.6256 37.349 79.5169 42.4063 69.5934 52.6463C66.6079 55.5428 63.5095 58.3112 60.3711 60.8726C57.842 62.938 55.2047 64.968 52.5062 66.9272L60.8416 45.9295L60.8581 45.8887C61.0745 45.251 61.0957 44.6952 60.9169 44.2347Z" fill="#E5BBB3" fill-opacity="0.22"/>
<path d="M157.126 95.8593C156.789 95.7067 156.408 95.7476 155.964 95.9819L155.832 96.0691C152.482 98.8866 149.873 100.216 148.071 99.9929C147.508 99.9275 147.289 99.6523 147.174 99.4506C146.89 98.952 146.558 97.565 147.539 93.8892C148.489 90.5431 149.4 87.6411 150.266 85.1833C150.708 83.4803 150.059 82.7718 149.63 82.4994C149.136 82.1887 148.334 82.047 147.322 83.1397C146.995 83.4912 146.066 84.6602 141.805 90.7584C138.688 95.2189 136.225 98.4615 134.491 100.383C132.618 102.402 131.691 102.799 131.301 102.851C131.308 102.609 131.39 102.012 131.894 100.756C136.044 90.9273 138.554 85.1724 139.359 83.6492L139.434 83.4531C139.585 82.8917 139.559 82.4149 139.363 82.0307C139.243 81.7964 139.001 81.4912 138.526 81.3822C137.686 81.1969 136.921 81.483 136.303 82.2023L136.19 82.3713C134.766 85.1425 132.578 90.0881 129.675 97.11C129.287 97.7122 128.699 98.6523 127.864 100.004C126.718 101.859 125.765 103.325 125.033 104.366C124.351 105.334 123.405 106.255 122.22 107.102C121.942 107.301 121.671 107.467 121.406 107.601C117.578 107.612 119.778 98.5787 120.662 95.0882C126.593 71.6845 136.879 51.4143 141.704 42.6512C140.97 41.8256 140.081 40.8637 139.079 39.8528C121.591 71.3983 115.651 97.7176 115.651 97.7204C114.331 98.9275 112.978 99.8648 111.612 100.505C109.788 101.361 108.261 101.68 107.045 101.445C106.231 101.323 105.713 100.963 105.415 100.312C104.784 98.9384 104.787 95.5432 108.419 87.1261C108.751 86.1806 109.115 84.8291 108.48 83.9463C108.358 83.7555 108.207 83.6084 108.04 83.513L108.337 82.7691L107.845 83.4258C107.763 83.3986 107.68 83.3849 107.593 83.3795C106.967 83.3223 106.464 83.9381 106.149 84.3822C105.542 85.2324 104.707 86.2624 103.657 87.4613C103.627 86.6629 103.469 86.0335 103.184 85.5566C102.874 85.0362 102.413 84.7038 101.857 84.5975C100.255 84.2623 98.4296 84.7038 96.437 85.9054C94.5219 87.058 92.6962 88.6984 91 90.7965C90.4354 91.5404 90.0025 92.129 89.699 92.5649L88.4521 94.3633C87.871 95.1971 87.4757 95.8893 87.2428 96.4778C87.0311 97.0119 86.8264 97.6114 86.6335 98.2599C86.3912 99.0773 86.3747 99.8185 86.5841 100.459C86.7934 101.099 87.2005 101.625 87.7792 102.017C90.9388 104.274 95.9711 101.088 103.1 92.2816C101.695 96.8675 101.49 100.14 102.469 102.216C103.111 103.576 104.227 104.394 105.772 104.641C106.135 104.71 106.511 104.742 106.904 104.742C108.45 104.742 110.235 104.222 112.324 103.167C113.247 102.701 114.112 102.192 114.922 101.639C114.776 102.75 114.694 103.778 114.694 104.691C114.694 109.249 116.491 110.674 117.964 111.058C118.533 111.241 119.102 111.331 119.667 111.331C120.305 111.331 120.937 111.214 121.559 110.985C122.704 110.56 123.831 109.721 124.909 108.494C125.923 107.342 126.772 106.29 127.433 105.374C127.574 105.178 127.727 104.955 127.885 104.72C127.925 104.827 127.953 104.941 128.007 105.037C128.337 105.65 128.868 106.034 129.598 106.189C129.798 106.227 130 106.244 130.207 106.244C131.931 106.244 133.966 104.947 136.394 102.295C137.629 100.952 138.895 99.4425 140.161 97.8048C141.434 96.1563 142.956 94.0445 144.687 91.5268C144.709 91.4968 144.73 91.4641 144.751 91.4341C144.539 92.1399 144.311 92.9028 144.066 93.7203C143.638 95.11 143.382 96.4179 143.302 97.6277C143.21 99.4425 143.537 100.843 144.271 101.791C144.927 102.639 145.887 103.105 147.106 103.176C149.943 103.423 153.26 101.78 157.246 98.2027C157.547 97.9874 157.738 97.7149 157.81 97.3852C157.876 97.0964 157.841 96.7885 157.712 96.5133C157.594 96.2026 157.385 95.9737 157.126 95.8593ZM100.439 91.0445C92.4069 99.8267 90.4565 99.6659 90.0919 99.4833C90.0942 99.3253 90.1601 98.8484 90.7083 97.7531C91.414 96.3389 92.428 94.7993 93.7008 93.2026C95.063 91.6249 96.4228 90.3333 97.738 89.366C99.246 88.257 100.048 88.1071 100.469 88.1752C100.528 88.1834 100.538 88.197 100.554 88.2215C100.611 88.3142 100.862 88.8864 100.439 91.0445Z" fill="#E5BBB3" fill-opacity="0.22"/>
<path d="M172.082 33.4114C167.266 22.2885 157.222 23.2477 157.222 23.2477C151.169 23.8444 147.409 27.6156 143.382 32.7874C102.022 -8.33875 40.8932 -9.79927 2.24152 26.5856C-0.442851 29.196 -0.755752 33.8337 1.51691 36.9237C1.92862 37.4823 2.31445 37.9782 2.63912 38.3515C5.96577 42.2944 9.44298 46.0329 13.0002 49.597C13.8754 47.4688 14.8988 45.695 15.9739 44.2018C14.0401 41.9701 12.1485 39.6867 10.3205 37.3488C7.33265 32.8582 12.3556 27.9862 16.5103 24.9807C30.5721 15.6018 46.2125 10.2338 63.1445 9.00218C73.3009 8.26103 83.7514 9.10573 94.1713 11.4355L102.841 13.7189C106.214 14.7462 109.574 15.9315 112.912 17.2666C135.31 26.9807 147.473 42.6132 147.473 42.6132C151.734 48.0983 152.223 63.7553 152.223 63.7553C154.159 53.1583 150.677 40.7194 150.677 40.7194C150.343 40.3161 150.011 39.921 149.68 39.5286C148.51 38.1798 147.322 36.8719 146.115 35.5912C147.398 33.9345 149.579 31.2615 151.367 29.85C163.153 20.5283 172.082 33.4114 172.082 33.4114Z" fill="#E5BBB3" fill-opacity="0.22"/>
<path d="M218.657 149.85C211.877 162.967 198.89 168.466 184.655 166.724L184.33 166.684L184.32 166.305C184.231 162.599 183.709 159.019 182.77 155.662C182.048 152.825 180.787 150.236 179.568 147.732C178.872 146.302 178.149 144.819 177.531 143.299C174.639 136.386 172.781 129.007 171.993 121.323C171.894 122.348 171.816 123.413 171.76 124.53C171.487 131.326 172.296 138.163 174.166 144.847C174.595 146.294 175.089 147.76 175.564 149.176C177.067 153.648 178.62 158.272 178.531 163.305C178.646 165.836 178.359 168.904 177.674 172.4C182.467 173.727 187.626 174.894 192.978 174.657C196.192 174.607 199.392 174.049 202.483 173.057C202.906 172.926 203.323 172.782 203.735 172.629C203.81 172.602 203.883 172.577 203.958 172.55C219.013 166.812 225.795 146.918 225.795 146.918C241.363 101.914 263.998 100.154 263.998 100.154C259.655 99.9412 255.05 101.475 249.971 104.437C232.552 115.124 224.977 134.31 218.657 149.85Z" fill="#E5BBB3" fill-opacity="0.22"/>
<path d="M320.837 25.049C314.944 19.8499 308.947 15.5202 302.931 12.125L302.926 12.1223C268.345 -7.71188 223.651 -2.9107 189.065 24.3514C182.654 29.6322 174.66 36.2181 169.708 45.439C169.378 46.0875 169.11 46.8695 169.002 47.5044C166.647 59.3657 165.393 69.622 165.179 78.9737C165.976 73.5294 167.124 67.671 168.687 60.9679C169.479 57.5291 170.533 53.5945 172.006 48.5862L172.058 48.4091C172.103 48.2565 172.161 48.0576 172.253 47.875H172.251C174.512 43.8395 178.165 40.4525 181.412 37.5914C203.67 18.6973 230.232 8.85519 255.927 8.85519C271.264 8.85519 286.291 12.3593 299.913 19.5366C302.731 21.0325 305.512 22.6865 308.246 24.4713C312.318 27.3433 318.496 32.9428 314.494 38.3844C311.652 41.9539 308.69 45.4417 305.627 48.8505C301.326 53.4746 297.567 57.8725 294.149 62.9189C294.149 62.9189 292.448 63.1723 291.001 63.2377L283.569 63.5947L283.235 63.6737C282.352 63.9434 281.567 64.4584 281.472 65.2895C281.315 66.8645 282.421 67.2759 282.891 67.2759L289.255 67.0252C289.255 67.0252 290.297 66.8999 291.845 66.8154C281.95 82.1781 276.478 96.7806 274.944 101.23C274.65 102.083 274.944 102.623 274.944 102.623C275.438 103.345 276.374 103.154 276.824 101.917C288.679 69.3604 310.076 51.1258 310.076 51.1258L310.057 51.1149C313.452 48.0739 316.059 45.3573 318.976 42.1746C319.955 41.101 320.898 40.0057 321.806 38.8885C325.076 34.8584 324.639 28.4032 320.837 25.049Z" fill="#E5BBB3" fill-opacity="0.22"/>
<path d="M310.555 63.9162L310.541 63.9053C310.209 63.6492 309.656 63.2241 303.374 63.3031C302.659 64.1315 301.711 65.9952 301.003 66.9271C306.496 66.8018 308.543 67.028 309.202 67.2868C309.792 67.6274 310.675 67.3686 311.042 66.7146C311.42 66.0252 311.484 64.6601 310.555 63.9162Z" fill="#E5BBB3" fill-opacity="0.22"/>
<path d="M282.105 77.0852L282.721 76.9708L282.804 76.949C284.029 76.5212 284.213 75.5457 284.213 75.0007C284.213 74.4558 284.013 74.126 283.843 73.9462C283.592 73.6737 283.251 73.5538 282.834 73.5756C282.815 73.5756 282.797 73.5756 282.775 73.5756C281.366 73.5756 279.785 74.4612 277.95 76.276C277.477 76.7419 277.007 77.2487 276.539 77.7964C277.56 75.2923 278.287 73.5511 278.705 72.6001C278.896 72.2323 279.131 71.6764 278.964 71.1178C278.868 70.7963 278.656 70.5511 278.369 70.4257L278.211 70.3794C277.56 70.2731 276.931 70.5592 276.348 71.235L276.223 71.4285C275.642 72.6437 274.711 74.7691 273.447 77.761C270.753 77.8209 268.06 77.3822 265.413 76.4395C264.935 76.1288 264.326 75.9735 263.559 75.9653C262.481 75.7501 261.185 76.5239 259.519 78.3959C258 80.1044 256.666 82.0826 255.551 84.2816C255.289 84.8102 255.064 85.317 254.873 85.8048C253.41 85.7039 251.224 85.9001 248.241 86.4151C248.867 85.5677 249.514 84.6249 250.177 83.5922C251.657 81.2161 252.626 79.088 253.059 77.2596C253.457 75.5539 253.363 74.2896 252.772 73.3958C252.247 72.6029 251.377 72.2023 250.175 72.2023C247.074 72.2568 243.305 75.3032 238.743 81.475L244.632 68.4366C245.027 67.6927 245.385 66.8371 245.051 66.145C244.964 65.9651 244.695 65.5428 244.133 65.5428H244.131C243.613 65.5101 242.863 65.6981 242.195 66.8344L242.14 66.9379C241.084 69.4121 238.348 75.6738 234.005 85.5432C230.815 85.6876 228.316 85.8293 226.564 85.971C226.474 85.1045 226.253 84.3388 225.905 83.6875C225.19 81.9545 223.872 80.4613 221.988 79.2515C220.157 78.0798 218.089 77.1942 215.835 76.622C214.01 76.1561 212.029 75.6901 209.944 75.2323H209.954C200.922 73.3522 197.033 70.6464 195.386 68.8807C194.57 68.0061 194.205 66.6681 194.476 65.4174C196.53 55.8941 208.171 49.379 214.2 46.5915C218.412 44.7358 222.75 43.1663 227.133 41.9483C232.003 40.5941 236.461 39.8257 240.35 39.6595C241.538 39.6595 241.78 39.9973 241.818 40.0627C241.898 40.2099 241.884 40.6023 241.604 41.278C241.265 42.1282 240.112 44.1064 236.546 48.6896C235.021 50.6597 233.918 52.1447 233.276 53.093C231.255 55.9404 228.794 59.9677 230.756 62.0604L230.883 62.1967L231.048 62.2539C231.892 62.5455 232.657 62.3547 233.283 61.6817C233.723 61.1721 233.704 60.7116 233.61 60.4174C233.537 60.1885 233.374 59.9187 233.012 59.7825C233.015 59.728 233.022 59.6489 233.04 59.5481C233.172 58.9214 233.977 57.0849 237.882 51.8259C241.303 47.2781 243.392 44.3026 244.267 42.7304C245.622 40.3434 245.992 38.6703 245.434 37.4714C244.994 36.5286 244.039 36.0518 242.59 36.0518C238.395 36.0518 233.57 36.752 228.243 38.1308C222.933 39.5069 217.682 41.3843 212.631 43.714C207.561 46.0519 202.924 49.0248 198.849 52.5453C194.72 56.1148 191.893 59.9296 190.429 63.9215C189.596 66.5156 189.519 68.6437 190.194 70.2459C190.853 71.8127 192.17 73.1397 194.106 74.186C195.946 75.1806 198.045 75.9299 200.348 76.4149C202.599 76.889 205.018 77.4149 207.606 77.9899C210.182 78.5621 212.608 79.1343 214.812 79.6902C216.946 80.227 218.842 81.0635 220.447 82.1807C221.962 83.2352 222.938 84.505 223.347 85.9519L223.385 86.0881L223.458 86.2026C223.493 86.2598 223.5 86.2925 223.503 86.3034C223.507 86.3225 223.51 86.3443 223.515 86.3715C213.608 87.4233 204.752 89.6577 197.181 93.012C190.695 95.8921 185.67 99.4644 182.242 103.623C178.739 107.873 177.09 111.887 177.341 115.557C177.473 117.353 178.078 118.887 179.139 120.113C180.169 121.307 181.574 122.162 183.31 122.656C184.155 122.895 185.11 123.015 186.169 123.015C187.246 123.015 188.432 122.89 189.716 122.645C192.224 122.16 194.986 121.165 197.922 119.688C200.355 118.484 203.15 116.672 206.232 114.298C209.3 111.933 212.316 109.296 215.193 106.456C218.089 103.598 220.637 100.505 222.766 97.2709C224.759 94.2436 225.982 91.4561 226.415 88.9765C228.034 88.8048 230.144 88.6495 232.697 88.5132C232.669 88.5759 232.643 88.6359 232.615 88.6985C227.46 100.402 224.22 107.887 222.988 110.95L222.936 111.08L222.922 111.222C222.882 111.642 222.898 111.988 222.966 112.285C223.044 112.604 223.216 112.857 223.456 112.996C223.559 113.056 223.703 113.11 223.882 113.11C224.006 113.11 224.147 113.083 224.305 113.015C224.616 112.879 224.954 112.565 225.401 112.004L225.486 111.898L225.535 111.764C225.677 111.394 226.975 108.277 232.335 95.5979C232.935 94.4725 233.899 92.8757 235.198 90.8539C236.501 88.8239 238.089 86.4914 239.917 83.9219C241.717 81.3878 243.587 79.2133 245.472 77.4613C247.676 75.4095 248.987 75.0416 249.714 75.107C250.064 75.1261 250.271 75.216 250.325 75.3768C250.384 75.5457 250.441 75.9626 250.163 76.8427C249.899 77.6793 249.554 78.5349 249.14 79.3823C248.704 80.2733 248.149 81.3305 247.495 82.5131C246.625 84.0554 245.554 85.6249 244.312 87.1781C242.06 87.7203 240.101 88.3852 238.461 89.1645C237.83 89.4915 237.27 89.8648 236.779 90.2817C235.407 91.4833 234.897 92.6714 235.254 93.8076C235.68 95.1782 236.972 95.4589 239.113 94.6333C241.319 93.7014 243.627 91.8703 245.975 89.1863C249.158 88.5732 251.923 88.2517 254.193 88.2135C254.125 88.6386 254.09 89.05 254.09 89.4479C254.09 91.2108 254.972 92.328 256.557 92.5896C256.901 92.6577 257.242 92.6904 257.579 92.6904C259.164 92.6904 260.686 91.9493 262.119 90.4751C263.761 88.7857 265.029 86.723 265.89 84.3442C266.479 82.7584 266.794 81.3088 266.831 80.0144C268.819 80.4967 270.619 80.7066 272.233 80.6657C271.833 81.6248 271.41 82.6467 270.96 83.7339C268.387 89.9629 266.744 93.854 266.081 95.2954L266.022 95.4235L266.003 95.5679C265.923 96.1673 266.003 96.6578 266.243 97.0311C266.392 97.26 266.671 97.5516 267.17 97.6279L267.269 97.636C268.02 97.636 268.568 97.1401 268.794 96.2627C269.104 95.7041 269.521 94.8131 270.066 93.546C270.631 92.2381 271.062 91.2735 271.353 90.6686C273.184 86.693 275.245 83.3769 277.477 80.8047C280.282 77.5675 281.58 77.0852 282.105 77.0852ZM221.527 94.3308C220.204 96.6496 218.529 98.9167 216.548 101.067C214.539 103.241 212.316 105.375 209.94 107.41C207.556 109.451 205.23 111.247 203.025 112.751C200.821 114.252 198.847 115.451 197.155 116.315C196.904 116.443 196.661 116.549 196.412 116.669L196.857 116.405C189.994 119.835 186.343 119.19 184.159 118.04C182.348 117.086 181.397 114.803 181.689 112.522C182.433 106.691 187.197 102.375 188.989 100.936C191.603 98.9167 194.723 97.1101 198.329 95.5434C205.413 92.5269 213.869 90.4097 223.475 89.2435C223.223 90.7885 222.571 92.4942 221.527 94.3308ZM238.376 92.0201L238.369 92.0229C238.294 92.0501 238.223 92.0746 238.157 92.0964C238.409 91.9084 238.767 91.6877 239.275 91.4397C239.684 91.2081 240.141 90.9847 240.646 90.7694C239.872 91.3416 239.115 91.7585 238.376 92.0201ZM263.072 83.8456L263.063 83.8728C262.467 85.535 261.562 86.9846 260.366 88.1781C259.249 89.298 258.24 89.8157 257.433 89.7095C257.251 89.6713 257.19 89.3416 257.252 88.7312C257.355 87.7094 257.762 86.5105 258.482 85.1317C259.124 83.772 259.879 82.5022 260.722 81.3633C261.519 80.2897 262.201 79.5594 262.752 79.197C263.164 79.0226 263.665 78.8836 263.818 79.167C264.051 79.6057 264.265 80.8047 263.072 83.8456Z" fill="#E5BBB3" fill-opacity="0.22"/>
<path d="M203.022 112.748L196.854 116.402C198.672 115.495 200.717 114.301 203.022 112.748Z" fill="#E5BBB3" fill-opacity="0.22"/>
<path d="M154.439 111.514C153.576 111.764 152.731 111.931 151.901 112.053L152.136 112.2C152.136 112.2 154.119 132.525 145.935 147.82C145.935 147.82 140.829 157.054 141.547 165.899C141.547 165.899 139.542 166.779 134.167 166.635L133.971 166.643L132.616 166.528C122.145 166.081 112.158 159.727 106.483 149.918L106.436 149.945L106.434 149.939C103.537 142.879 102.829 141.149 102.653 140.683L102.639 140.691C98.3076 131.176 91.7954 118.568 82.1402 109.296C81.4626 110.211 80.658 111.244 79.7334 112.339C79.7569 112.364 91.4708 124.07 98.1288 143.79C98.1288 143.79 104.622 168.692 125.245 173.885C126.57 174.172 127.883 174.422 129.118 174.651C129.682 174.697 130.889 174.785 131.981 174.864C132.75 174.918 133.463 174.97 133.866 175L134.496 174.967C135.755 174.905 137.656 174.815 138.554 174.741C140.279 174.528 142.168 174.174 143.998 173.831C145.403 173.567 146.852 173.294 148.226 173.087L147.358 168.351C146.459 162.455 147.452 156.602 150.393 150.444C154.677 140.334 156.27 128.743 154.99 116.947C154.844 115.538 154.653 113.664 154.439 111.514Z" fill="#E5BBB3" fill-opacity="0.22"/>
</svg>
