<svg width="40" height="40" viewBox="0 0 40 40" fill="none" xmlns="http://www.w3.org/2000/svg">
<path d="M36.9721 19.4818C36.403 19.4818 35.8572 19.7078 35.4548 20.1102C35.0523 20.5127 34.8263 21.0584 34.8263 21.6275V33.5796C34.8263 33.921 34.6906 34.2485 34.4492 34.49C34.2077 34.7314 33.8803 34.8671 33.5388 34.8671H6.0727C5.73124 34.8671 5.40377 34.7314 5.16232 34.49C4.92087 34.2485 4.78523 33.921 4.78523 33.5796V6.11349C4.78523 5.77203 4.92087 5.44456 5.16232 5.20311C5.40377 4.96166 5.73124 4.82602 6.0727 4.82602H26.6079C27.177 4.82602 27.7228 4.59995 28.1252 4.19753C28.5276 3.79512 28.7537 3.24933 28.7537 2.68023C28.7537 2.11113 28.5276 1.56534 28.1252 1.16293C27.7228 0.760516 27.177 0.534443 26.6079 0.534443H6.0727C4.59479 0.540095 3.17901 1.1297 2.13396 2.17475C1.08891 3.21981 0.499304 4.63558 0.493652 6.11349V33.5796C0.499304 35.0575 1.08891 36.4733 2.13396 37.5183C3.17901 38.5634 4.59479 39.153 6.0727 39.1586H33.5388C35.0167 39.153 36.4325 38.5634 37.4775 37.5183C38.5226 36.4733 39.1122 35.0575 39.1179 33.5796V21.6275C39.1179 21.0584 38.8918 20.5127 38.4894 20.1102C38.087 19.7078 37.5412 19.4818 36.9721 19.4818Z" fill="current"/>
<path d="M17.0587 17.7008C16.656 17.3386 16.1313 17.1421 15.5898 17.1507C15.0483 17.1593 14.5301 17.3723 14.1391 17.747C13.7481 18.1217 13.5133 18.6304 13.4817 19.171C13.4501 19.7117 13.6241 20.2442 13.9687 20.6619L18.7324 25.6616C18.9318 25.8708 19.1715 26.0376 19.437 26.1519C19.7025 26.2662 19.9883 26.3257 20.2774 26.3268C20.5649 26.3285 20.8498 26.2724 21.1152 26.1618C21.3806 26.0512 21.6211 25.8884 21.8223 25.6831L36.3708 10.6626C36.568 10.4597 36.7234 10.2199 36.828 9.95699C36.9326 9.69406 36.9844 9.41311 36.9804 9.13017C36.9764 8.84722 36.9167 8.56784 36.8048 8.30796C36.6928 8.04808 36.5308 7.8128 36.3279 7.61554C36.125 7.41829 35.8852 7.26293 35.6223 7.15834C35.3594 7.05374 35.0784 7.00196 34.7955 7.00594C34.5125 7.00993 34.2331 7.0696 33.9733 7.18156C33.7134 7.29352 33.4781 7.45557 33.2808 7.65846L20.2988 21.0911L17.0587 17.7008Z" fill="current"/>
</svg>
