<svg width="25" height="25" viewBox="0 0 25 25" fill="none" xmlns="http://www.w3.org/2000/svg">
<path d="M14.7098 12.4999L24.5424 2.66701C25.1525 2.05685 25.1525 1.06739 24.5424 0.457621C23.9322 -0.15254 22.9431 -0.15254 22.333 0.457621L12.5 10.2901L2.66742 0.457621C2.05726 -0.15254 1.06779 -0.15254 0.457624 0.457621C-0.152541 1.06778 -0.152541 2.05724 0.457624 2.66701L10.2906 12.4999L0.457624 22.3328C-0.152541 22.943 -0.152541 23.9324 0.457624 24.5422C0.762707 24.8473 1.16271 25 1.56233 25C1.96194 25 2.36234 24.8473 2.66742 24.5422L12.5 14.7097L22.333 24.5422C22.638 24.8473 23.0381 25 23.4377 25C23.8373 25 24.2377 24.8473 24.5424 24.5422C25.1525 23.932 25.1525 22.9426 24.5424 22.3328L14.7098 12.4999Z" fill="#B39365"/>
</svg>
