<svg width="33" height="33" viewBox="0 0 33 33" fill="none" xmlns="http://www.w3.org/2000/svg">
<path d="M25.971 0H7.029C3.1548 0 0 3.19959 0 7.1288V25.8712C0 29.8004 3.1548 33 7.029 33H25.971C29.8452 33 33 29.8004 33 25.8712V7.1288C33 3.19959 29.8452 0 25.971 0ZM31.68 25.8712C31.68 29.0641 29.1192 31.6613 25.971 31.6613H7.029C3.8808 31.6613 1.32 29.0641 1.32 25.8712V7.1288C1.32 3.9359 3.8808 1.33874 7.029 1.33874H25.971C29.1192 1.33874 31.68 3.9359 31.68 7.1288V25.8712Z" fill="#B39365"/>
<path d="M16.1242 8.26792C11.646 8.26792 8 11.798 8 16.134C8 20.4699 11.646 24 16.1242 24C20.6024 24 24.2483 20.4699 24.2483 16.134C24.2483 11.798 20.6024 8.26792 16.1242 8.26792ZM16.1242 22.721C12.3725 22.721 9.321 19.7664 9.321 16.134C9.321 12.5015 12.3725 9.54695 16.1242 9.54695C19.8758 9.54695 22.9273 12.5015 22.9273 16.134C22.9273 19.7664 19.8758 22.721 16.1242 22.721ZM25.7477 5C24.5059 5 23.4954 5.97846 23.4954 7.18075C23.4954 8.38304 24.5059 9.36149 25.7477 9.36149C26.9894 9.36149 28 8.38304 28 7.18075C28 5.97846 26.9894 5 25.7477 5ZM25.7477 8.08246C25.2325 8.08246 24.8164 7.67957 24.8164 7.18075C24.8164 6.68193 25.2325 6.27903 25.7477 6.27903C26.2629 6.27903 26.679 6.68193 26.679 7.18075C26.679 7.67957 26.2629 8.08246 25.7477 8.08246Z" fill="#B39365"/>
</svg>
