<svg width="216" height="111" viewBox="0 0 216 111" fill="none" xmlns="http://www.w3.org/2000/svg">
<path d="M56.2649 43.6484C54.9598 42.4169 52.9537 41.7918 50.3075 41.7918C47.8424 41.7918 45.0589 42.0401 42.0364 42.5265C40.6017 42.7578 39.2154 43.0472 37.89 43.3915C38.2974 43.1483 38.7018 42.9033 39.1014 42.6584C40.6954 41.6839 42.5719 40.3822 44.6795 38.7876C46.7965 37.1861 48.6449 35.6036 50.1717 34.0843C51.7251 32.5411 53.0724 30.7821 54.1761 28.857C55.3064 26.8839 55.8793 24.9605 55.8793 23.1415C55.8793 19.9386 53.2675 18.3149 48.1156 18.3149C45.087 18.3149 41.4885 18.899 37.4216 20.05C33.3688 21.1975 29.4799 22.6722 25.858 24.4381C22.2158 26.2125 19.0779 28.3432 16.5332 30.7753C13.9088 33.281 12.5771 35.768 12.5771 38.1641C12.5771 39.1113 12.905 40.1047 13.5529 41.1135C14.1571 42.0572 14.9189 43.0044 15.8135 43.9276C16.6768 44.8199 17.6041 45.8373 18.5689 46.9523C19.5119 48.0416 20.3736 49.3519 21.1308 50.8488C21.888 52.3407 22.4828 54.0192 22.8996 55.8381C23.3133 57.6348 23.3945 59.8836 23.1416 62.5247C22.8871 65.1829 22.2252 68.1255 21.1714 71.2855L21.1043 71.5064C20.7093 72.4056 21.0309 72.9572 21.2588 73.2089L21.315 73.262C21.5336 73.4419 21.7943 73.5087 22.0503 73.4504C22.4516 73.3597 22.8106 72.9863 23.1837 72.2721L33.8262 46.7108C39.153 44.9278 44.4719 44.0218 49.6409 44.0218C53.7608 44.0218 55.7638 45.6712 55.7638 49.0659C55.7638 52.5548 53.6672 57.4361 49.5332 63.5678C46.9557 67.3187 42.9716 70.847 37.6886 74.0533C32.4196 77.2528 28.0562 78.8747 24.7215 78.8747C21.2588 78.8747 18.9014 77.6998 17.5198 75.2814C16.1257 72.8441 15.7354 69.6464 16.3583 65.7875C16.3911 65.6043 16.4067 65.4553 16.4067 65.3319C16.4067 64.8455 16.2693 64.5047 16.0008 64.3214C15.8244 64.2015 15.5262 64.1073 15.0735 64.3557C14.5099 64.7034 14.1758 65.2566 14.1009 66.0051C14.0743 67.2297 14.0681 68.4988 14.0806 69.78C14.0946 71.1399 14.321 72.5101 14.7565 73.8512C15.1874 75.1803 15.7479 76.3964 16.4239 77.4634C17.1264 78.575 18.1864 79.4862 19.5743 80.1713C20.9388 80.8461 22.5655 81.187 24.4061 81.187C26.9103 81.187 29.9561 80.4231 33.4594 78.9158C36.9377 77.4172 40.3878 75.3756 43.7178 72.8441C47.0618 70.3024 49.733 67.6185 51.6642 64.8609C56.0433 58.4364 58.2633 53.0652 58.2633 48.8929C58.2664 46.6663 57.5935 44.9021 56.2649 43.6484ZM41.1356 28.2866C41.0654 28.1137 40.9186 27.8636 40.6064 27.7574C39.4355 27.3566 32.8895 44.3181 32.8895 44.3181C27.0586 47.9577 25.6613 48.4133 25.335 48.4441L25.0837 48.254L24.7761 48.54C24.339 48.946 24.0799 49.4118 24.008 49.9274C23.9456 50.4069 24.1454 50.6656 24.2703 50.7769C24.6325 51.0989 25.1399 50.9516 25.4912 50.8094L25.6332 50.7238C26.8884 49.6602 28.882 48.5777 31.5688 47.497L24.8573 62.9957C25.0322 61.3189 25.0665 59.7449 24.9572 58.2874C24.759 55.6326 24.2891 53.382 23.5647 51.5973C22.845 49.8297 21.9473 48.1992 20.8935 46.7519C19.846 45.3115 18.8296 44.1177 17.8758 43.2014C15.5168 40.5089 16.1725 37.837 16.1725 37.837C17.345 31.5957 25.691 27.2641 26.9711 26.6321C27.0289 26.6047 27.0835 26.5756 27.1413 26.5499C30.3136 25.0718 33.6717 23.8283 37.1328 22.8178C40.0163 22.0488 48.4591 20.1836 50.8961 23.9585C50.8961 23.9585 53.4783 27.1374 46.8932 33.5739C44.9121 35.3946 42.8561 37.1348 40.7735 38.7448C39.0952 40.043 37.3451 41.319 35.5545 42.5505L41.0857 29.352L41.0966 29.3263C41.2402 28.9255 41.2543 28.5761 41.1356 28.2866Z" fill="#B39365"/>
<path d="M104.978 60.7367C104.755 60.6408 104.502 60.6665 104.207 60.8138L104.119 60.8686C101.896 62.6396 100.165 63.4754 98.9691 63.3349C98.596 63.2938 98.4508 63.1208 98.3743 62.9941C98.1854 62.6807 97.9653 61.8089 98.6163 59.4984C99.247 57.3951 99.8512 55.571 100.426 54.0261C100.719 52.9556 100.288 52.5103 100.004 52.339C99.6763 52.1438 99.1439 52.0547 98.4726 52.7415C98.2556 52.9625 97.639 53.6972 94.8117 57.5304C92.7432 60.3342 91.1086 62.3724 89.958 63.5799C88.7153 64.849 88.1002 65.0991 87.8411 65.1316C87.8458 64.9792 87.9004 64.6041 88.2345 63.8145C90.9884 57.6366 92.6542 54.0192 93.1881 53.0618L93.238 52.9385C93.338 52.5857 93.3208 52.2859 93.1912 52.0444C93.1116 51.8971 92.9508 51.7053 92.6354 51.6368C92.0781 51.5203 91.5707 51.7002 91.1601 52.1523L91.0852 52.2585C90.1407 54.0004 88.6888 57.1091 86.7623 61.5228C86.5047 61.9014 86.1144 62.4923 85.5602 63.3418C84.7999 64.5082 84.1676 65.4296 83.6821 66.0839C83.2294 66.692 82.6018 67.2709 81.815 67.8035C81.6307 67.9286 81.4512 68.033 81.2748 68.117C78.7348 68.1238 80.1945 62.446 80.7815 60.252C84.7172 45.5411 91.5426 32.7998 94.7446 27.2916C94.2575 26.7726 93.6674 26.168 93.0023 25.5326C81.3981 45.3612 77.4562 61.9048 77.4562 61.9065C76.5803 62.6652 75.6827 63.2544 74.7756 63.6569C73.5657 64.1947 72.5525 64.3951 71.7454 64.2478C71.2052 64.1708 70.8618 63.9447 70.6635 63.5353C70.2451 62.6721 70.2467 60.538 72.6571 55.2473C72.8772 54.653 73.1192 53.8034 72.6977 53.2485C72.6165 53.1286 72.5166 53.0361 72.4058 52.9762L72.6025 52.5086L72.2762 52.9214C72.2216 52.9042 72.1669 52.8957 72.1092 52.8922C71.6939 52.8563 71.3598 53.2433 71.1506 53.5225C70.7478 54.0569 70.1936 54.7043 69.4973 55.458C69.477 54.9561 69.3724 54.5605 69.1835 54.2607C68.9774 53.9336 68.6715 53.7246 68.303 53.6578C67.2399 53.4472 66.0284 53.7246 64.7061 54.48C63.4353 55.2045 62.2238 56.2355 61.0982 57.5544C60.7235 58.022 60.4363 58.3919 60.2349 58.666L59.4075 59.7964C59.0219 60.3205 58.7596 60.7555 58.605 61.1255C58.4645 61.4612 58.3287 61.838 58.2007 62.2456C58.0399 62.7595 58.029 63.2253 58.1679 63.6278C58.3068 64.0303 58.5769 64.3609 58.961 64.6075C61.0576 66.0257 64.397 64.0235 69.1273 58.4878C68.1953 61.3704 68.0595 63.4274 68.7089 64.7326C69.1351 65.5872 69.8751 66.1011 70.9008 66.2569C71.1412 66.2997 71.391 66.3203 71.6517 66.3203C72.6774 66.3203 73.8624 65.9931 75.2487 65.3303C75.8607 65.0374 76.4352 64.7171 76.9722 64.3694C76.8754 65.0683 76.8208 65.714 76.8208 66.2877C76.8208 69.1532 78.0135 70.049 78.9908 70.2905C79.3686 70.4052 79.7464 70.4617 80.1211 70.4617C80.5442 70.4617 80.9641 70.3881 81.3763 70.2442C82.1366 69.977 82.8844 69.4495 83.5994 68.6788C84.2722 67.9543 84.8358 67.2931 85.2745 66.7176C85.3682 66.5943 85.4697 66.4539 85.5742 66.3066C85.6008 66.3734 85.6195 66.4453 85.6554 66.5053C85.874 66.8906 86.2268 67.1321 86.7108 67.2298C86.8435 67.2537 86.9777 67.264 87.1151 67.264C88.2595 67.264 89.6099 66.4487 91.221 64.7822C92.0406 63.9378 92.8805 62.989 93.7204 61.9596C94.565 60.9234 95.5751 59.596 96.7241 58.0134C96.7382 57.9946 96.7522 57.974 96.7663 57.9552C96.6258 58.3988 96.4743 58.8783 96.312 59.3922C96.0279 60.2657 95.8577 61.0878 95.8046 61.8483C95.7437 62.989 95.9607 63.8693 96.4478 64.4654C96.8834 64.998 97.5203 65.2909 98.329 65.3354C100.212 65.4913 102.413 64.4585 105.058 62.2097C105.257 62.0743 105.384 61.9031 105.432 61.6958C105.476 61.5143 105.453 61.3207 105.367 61.1477C105.289 60.9525 105.15 60.8086 104.978 60.7367ZM67.3616 57.7102C62.0318 63.2305 60.7376 63.1294 60.4956 63.0147C60.4972 62.9153 60.5409 62.6156 60.9046 61.927C61.373 61.0381 62.0458 60.0704 62.8904 59.0667C63.7944 58.0751 64.6967 57.2632 65.5694 56.6552C66.5701 55.9581 67.1025 55.8639 67.3819 55.9067C67.421 55.9118 67.4272 55.9204 67.4381 55.9358C67.4756 55.994 67.6426 56.3537 67.3616 57.7102Z" fill="#B39365"/>
<path d="M114.902 21.4836C111.707 14.4921 105.042 15.095 105.042 15.095C101.025 15.4701 98.5303 17.8406 95.8576 21.0914C68.4122 -4.75933 27.8483 -5.67737 2.19983 17.1931C0.418535 18.834 0.210901 21.7491 1.71899 23.6913C1.9922 24.0425 2.24823 24.3542 2.46367 24.5888C4.67117 27.0672 6.97858 29.4171 9.33907 31.6574C9.91982 30.3197 10.5989 29.2047 11.3124 28.2661C10.0291 26.8634 8.77392 25.4281 7.56089 23.9585C5.57821 21.1359 8.9113 18.0735 11.6683 16.1843C20.9995 10.289 31.3781 6.91485 42.6139 6.14069C49.3534 5.67482 56.2882 6.20577 63.2026 7.67018L68.9555 9.10547C71.1942 9.75119 73.4236 10.4962 75.6389 11.3355C90.5012 17.4415 98.5725 27.2676 98.5725 27.2676C101.4 30.7154 101.724 40.5569 101.724 40.5569C103.009 33.896 100.699 26.0772 100.699 26.0772C100.477 25.8237 100.257 25.5754 100.037 25.3287C99.2609 24.4809 98.4726 23.6588 97.6717 22.8538C98.5225 21.8124 99.9697 20.1322 101.156 19.245C108.978 13.3857 114.902 21.4836 114.902 21.4836Z" fill="#B39365"/>
<path d="M145.809 94.6733C141.31 102.919 132.692 106.375 123.245 105.28L123.03 105.255L123.024 105.017C122.964 102.687 122.618 100.437 121.995 98.3266C121.516 96.5436 120.679 94.9165 119.87 93.3425C119.408 92.4433 118.929 91.5115 118.518 90.5558C116.599 86.2105 115.366 81.5724 114.843 76.7424C114.778 77.3864 114.726 78.0561 114.689 78.7583C114.507 83.0299 115.045 87.3273 116.286 91.5287C116.57 92.4381 116.898 93.3596 117.213 94.2502C118.211 97.0609 119.241 99.9674 119.182 103.131C119.258 104.722 119.068 106.651 118.613 108.848C121.793 109.682 125.217 110.415 128.769 110.266C130.901 110.235 133.025 109.884 135.076 109.261C135.357 109.179 135.633 109.088 135.906 108.992C135.956 108.975 136.005 108.959 136.055 108.942C146.045 105.335 150.546 92.8304 150.546 92.8304C160.876 64.5424 175.896 63.4359 175.896 63.4359C173.014 63.3023 169.959 64.2666 166.588 66.1284C155.029 72.8459 150.002 84.9054 145.809 94.6733Z" fill="#B39365"/>
<path d="M213.614 16.2271C209.703 12.9592 205.723 10.2376 201.731 8.10349L201.728 8.10177C178.781 -4.36541 149.123 -1.34753 126.172 15.7886C121.918 19.108 116.613 23.2477 113.327 29.0437C113.108 29.4513 112.93 29.9429 112.859 30.342C111.296 37.7976 110.464 44.2445 110.322 50.1227C110.851 46.7006 111.613 43.0181 112.649 38.8047C113.176 36.6432 113.875 34.17 114.852 31.0219L114.887 30.9106C114.916 30.8147 114.955 30.6897 115.016 30.5749H115.015C116.515 28.0383 118.939 25.9094 121.094 24.111C135.864 12.2347 153.49 6.04818 170.541 6.04818C180.718 6.04818 190.689 8.25079 199.728 12.7622C201.599 13.7025 203.444 14.7421 205.258 15.864C207.961 17.6693 212.06 21.189 209.405 24.6094C207.519 26.8531 205.553 29.0454 203.521 31.1881C200.667 34.0946 198.172 36.859 195.904 40.0311C195.904 40.0311 194.775 40.1904 193.815 40.2315L188.883 40.4558L188.661 40.5055C188.076 40.6751 187.554 40.9988 187.492 41.5212C187.387 42.5112 188.121 42.7698 188.433 42.7698L192.656 42.6122C192.656 42.6122 193.348 42.5334 194.375 42.4803C187.809 52.1369 184.178 61.3155 183.16 64.1125C182.965 64.6486 183.16 64.9877 183.16 64.9877C183.488 65.4416 184.109 65.3217 184.407 64.5441C192.274 44.08 206.473 32.6182 206.473 32.6182L206.46 32.6114C208.713 30.6999 210.443 28.9923 212.379 26.9918C213.028 26.317 213.654 25.6285 214.257 24.9262C216.427 22.3931 216.136 18.3355 213.614 16.2271Z" fill="#B39365"/>
<path d="M206.791 40.6579L206.782 40.6511C206.562 40.4901 206.195 40.2229 202.026 40.2725C201.552 40.7932 200.923 41.9647 200.453 42.5505C204.098 42.4717 205.456 42.6139 205.893 42.7766C206.285 42.9907 206.871 42.828 207.114 42.4169C207.366 41.9836 207.408 41.1255 206.791 40.6579Z" fill="#B39365"/>
<path d="M187.912 48.9358L188.321 48.8638L188.376 48.8501C189.189 48.5812 189.311 47.9681 189.311 47.6255C189.311 47.283 189.178 47.0757 189.066 46.9627C188.899 46.7914 188.672 46.716 188.396 46.7297C188.383 46.7297 188.371 46.7297 188.357 46.7297C187.422 46.7297 186.373 47.2864 185.155 48.4271C184.841 48.72 184.529 49.0385 184.218 49.3828C184.896 47.8088 185.378 46.7143 185.656 46.1166C185.783 45.8854 185.939 45.5359 185.828 45.1848C185.764 44.9827 185.623 44.8286 185.433 44.7498L185.328 44.7207C184.896 44.6539 184.479 44.8337 184.092 45.2585L184.009 45.3801C183.623 46.144 183.005 47.4799 182.167 49.3605C180.379 49.3982 178.592 49.1225 176.835 48.5299C176.519 48.3346 176.114 48.237 175.605 48.2318C174.89 48.0965 174.03 48.583 172.925 49.7596C171.916 50.8335 171.031 52.077 170.291 53.4592C170.118 53.7915 169.968 54.11 169.841 54.4166C168.87 54.3532 167.42 54.4766 165.441 54.8003C165.856 54.2676 166.285 53.675 166.725 53.0259C167.707 51.5323 168.351 50.1947 168.638 49.0454C168.902 47.9732 168.839 47.1785 168.447 46.6167C168.099 46.1183 167.522 45.8665 166.724 45.8665C164.666 45.9008 162.165 47.8156 159.138 51.695L163.046 43.4995C163.308 43.0319 163.545 42.4941 163.324 42.059C163.266 41.946 163.088 41.6805 162.715 41.6805H162.713C162.37 41.66 161.872 41.7782 161.428 42.4924L161.392 42.5575C160.691 44.1126 158.876 48.0486 155.994 54.2522C153.877 54.343 152.219 54.432 151.056 54.5211C150.997 53.9764 150.85 53.4951 150.619 53.0858C150.144 51.9965 149.27 51.0579 148.019 50.2974C146.805 49.5609 145.433 49.0043 143.937 48.6446C142.725 48.3517 141.411 48.0589 140.028 47.7711H140.034C134.041 46.5893 131.46 44.8885 130.367 43.7787C129.826 43.2289 129.584 42.3879 129.763 41.6017C131.126 35.6156 138.851 31.5204 142.852 29.7683C145.646 28.6019 148.525 27.6153 151.434 26.8497C154.665 25.9985 157.624 25.5155 160.204 25.411C160.993 25.411 161.154 25.6234 161.179 25.6645C161.232 25.757 161.222 26.0036 161.036 26.4284C160.812 26.9628 160.047 28.2062 157.68 31.0871C156.668 32.3254 155.936 33.2589 155.51 33.8549C154.169 35.6448 152.536 38.1762 153.838 39.4916L153.922 39.5773L154.031 39.6132C154.592 39.7965 155.099 39.6766 155.515 39.2535C155.807 38.9333 155.794 38.6438 155.732 38.4588C155.683 38.315 155.575 38.1454 155.335 38.0598C155.337 38.0255 155.341 37.9758 155.354 37.9125C155.441 37.5185 155.975 36.3641 158.567 33.0585C160.837 30.1999 162.223 28.3296 162.804 27.3413C163.703 25.8409 163.948 24.7893 163.578 24.0357C163.286 23.443 162.652 23.1433 161.691 23.1433C158.907 23.1433 155.705 23.5835 152.171 24.4501C148.647 25.3151 145.162 26.4952 141.811 27.9596C138.446 29.4291 135.369 31.2978 132.665 33.5107C129.925 35.7544 128.049 38.1522 127.078 40.6614C126.525 42.292 126.474 43.6297 126.922 44.6368C127.359 45.6216 128.233 46.4557 129.518 47.1134C130.739 47.7386 132.131 48.2096 133.66 48.5144C135.154 48.8125 136.759 49.143 138.476 49.5044C140.185 49.8641 141.795 50.2238 143.258 50.5732C144.674 50.9106 145.932 51.4364 146.997 52.1386C148.002 52.8015 148.65 53.5996 148.922 54.5091L148.947 54.5947L148.995 54.6667C149.019 54.7027 149.023 54.7232 149.025 54.7301C149.028 54.742 149.029 54.7557 149.033 54.7729C142.459 55.434 136.582 56.8385 131.558 58.9469C127.254 60.7573 123.92 63.0027 121.645 65.6164C119.32 68.2883 118.226 70.8112 118.393 73.1183C118.48 74.247 118.882 75.2112 119.586 75.982C120.27 76.7322 121.202 77.27 122.354 77.58C122.914 77.7307 123.548 77.8061 124.251 77.8061C124.966 77.8061 125.752 77.7273 126.605 77.5731C128.269 77.2683 130.102 76.6431 132.05 75.7148C133.664 74.9578 135.519 73.8188 137.564 72.327C139.6 70.8403 141.601 69.1823 143.511 67.3976C145.433 65.6009 147.123 63.657 148.536 61.6239C149.858 59.721 150.67 57.9689 150.958 56.4103C152.032 56.3024 153.432 56.2047 155.126 56.1191C155.107 56.1585 155.09 56.1962 155.071 56.2356C151.651 63.5919 149.501 68.2968 148.683 70.222L148.649 70.3042L148.639 70.3932C148.613 70.657 148.624 70.8745 148.669 71.0612C148.72 71.2616 148.834 71.4209 148.994 71.5083C149.062 71.5459 149.157 71.5802 149.276 71.5802C149.359 71.5802 149.453 71.5631 149.557 71.5202C149.763 71.4346 149.988 71.2376 150.285 70.8848L150.341 70.818L150.374 70.7341C150.467 70.5012 151.329 68.5418 154.885 60.5723C155.284 59.8649 155.924 58.8612 156.785 57.5904C157.65 56.3144 158.704 54.8482 159.917 53.2331C161.111 51.6402 162.353 50.2734 163.603 49.1721C165.066 47.8824 165.935 47.6512 166.418 47.6923C166.65 47.7043 166.788 47.7608 166.824 47.8619C166.863 47.9681 166.9 48.2301 166.716 48.7833C166.541 49.3092 166.312 49.847 166.037 50.3796C165.748 50.9397 165.38 51.6043 164.946 52.3476C164.368 53.317 163.658 54.3036 162.833 55.2798C161.339 55.6207 160.039 56.0386 158.951 56.5285C158.532 56.734 158.161 56.9686 157.834 57.2307C156.924 57.986 156.586 58.7328 156.823 59.447C157.105 60.3085 157.962 60.4849 159.383 59.966C160.848 59.3802 162.379 58.2292 163.937 56.5421C166.049 56.1568 167.884 55.9547 169.39 55.9307C169.345 56.1979 169.322 56.4565 169.322 56.7066C169.322 57.8147 169.907 58.517 170.959 58.6814C171.187 58.7242 171.414 58.7448 171.637 58.7448C172.689 58.7448 173.699 58.2789 174.65 57.3523C175.74 56.2904 176.581 54.9938 177.152 53.4986C177.543 52.5018 177.752 51.5906 177.777 50.777C179.096 51.0802 180.29 51.212 181.361 51.1864C181.096 51.7892 180.815 52.4315 180.517 53.1149C178.809 57.0303 177.719 59.4761 177.279 60.3822L177.24 60.4627L177.227 60.5534C177.174 60.9302 177.227 61.2385 177.387 61.4732C177.485 61.6171 177.671 61.8003 178.002 61.8483L178.067 61.8534C178.565 61.8534 178.929 61.5417 179.079 60.9902C179.285 60.6391 179.561 60.079 179.923 59.2826C180.298 58.4604 180.584 57.8541 180.777 57.4739C181.992 54.975 183.36 52.8906 184.841 51.2737C186.702 49.2389 187.564 48.9358 187.912 48.9358ZM147.713 59.7758C146.836 61.2334 145.724 62.6584 144.41 64.0098C143.077 65.3766 141.601 66.7177 140.025 67.9971C138.443 69.28 136.899 70.4087 135.436 71.3541C133.974 72.2978 132.664 73.0515 131.541 73.5944C131.374 73.6749 131.213 73.7417 131.048 73.8171L131.343 73.6509C126.789 75.8073 124.366 75.4014 122.917 74.6786C121.715 74.0791 121.085 72.6438 121.278 71.2102C121.771 67.5449 124.933 64.8319 126.122 63.9276C127.857 62.6584 129.927 61.5229 132.32 60.538C137.021 58.642 142.632 57.3112 149.006 56.5781C148.839 57.5493 148.407 58.6214 147.713 59.7758ZM158.895 58.3234L158.89 58.3251C158.84 58.3423 158.793 58.3577 158.749 58.3714C158.916 58.2532 159.154 58.1145 159.491 57.9586C159.763 57.813 160.065 57.6726 160.401 57.5373C159.887 57.8969 159.385 58.159 158.895 58.3234ZM175.282 53.1851L175.276 53.2023C174.881 54.247 174.28 55.1582 173.487 55.9084C172.745 56.6124 172.075 56.9378 171.54 56.871C171.42 56.847 171.379 56.6398 171.42 56.2561C171.488 55.6138 171.759 54.8602 172.236 53.9936C172.662 53.1389 173.164 52.3408 173.723 51.6248C174.252 50.95 174.705 50.491 175.07 50.2632C175.343 50.1536 175.676 50.0662 175.777 50.2443C175.932 50.5201 176.074 51.2737 175.282 53.1851Z" fill="#B39365"/>
<path d="M135.435 71.3523L131.341 73.6491C132.548 73.0788 133.905 72.3286 135.435 71.3523Z" fill="#B39365"/>
<path d="M103.195 70.5764C102.622 70.734 102.062 70.8385 101.51 70.9156L101.667 71.008C101.667 71.008 102.983 83.7835 97.5514 93.3973C97.5514 93.3973 94.1636 99.2018 94.6398 104.761C94.6398 104.761 93.3097 105.315 89.7424 105.224L89.6128 105.229L88.7136 105.157C81.7648 104.876 75.1376 100.882 71.3721 94.7161L71.3409 94.7332L71.3393 94.7298C69.4175 90.292 68.9476 89.2044 68.8305 88.9115L68.8211 88.9167C65.947 82.9357 61.6257 75.0108 55.2187 69.1823C54.769 69.7577 54.2351 70.4069 53.6216 71.0954C53.6372 71.1108 61.4103 78.4688 65.8284 90.8641C65.8284 90.8641 70.1372 106.517 83.8224 109.782C84.7014 109.961 85.5725 110.119 86.3921 110.263C86.7668 110.292 87.5677 110.347 88.2921 110.396C88.8026 110.431 89.2756 110.463 89.5426 110.482L89.961 110.461C90.7962 110.422 92.0576 110.366 92.654 110.319C93.7983 110.186 95.0519 109.963 96.2665 109.747C97.1985 109.581 98.1602 109.41 99.0719 109.28L98.4959 106.303C97.8995 102.596 98.5583 98.9175 100.51 95.0466C103.353 88.6923 104.41 81.4062 103.56 73.9917C103.464 73.1062 103.337 71.9278 103.195 70.5764Z" fill="#B39365"/>
</svg>
