<svg width="32" height="18" viewBox="0 0 32 18" fill="none" xmlns="http://www.w3.org/2000/svg">
<path d="M1.75 2.90165C2.7165 2.90165 3.5 2.2521 3.5 1.45083C3.5 0.649557 2.7165 0 1.75 0C0.783502 0 0 0.649557 0 1.45083C0 2.2521 0.783502 2.90165 1.75 2.90165Z" fill="#B39365"/>
<path d="M1.75 10.1558C2.7165 10.1558 3.5 9.50625 3.5 8.70498C3.5 7.90371 2.7165 7.25415 1.75 7.25415C0.783502 7.25415 0 7.90371 0 8.70498C0 9.50625 0.783502 10.1558 1.75 10.1558Z" fill="#B39365"/>
<path d="M1.75 17.4098C2.7165 17.4098 3.5 16.7603 3.5 15.959C3.5 15.1577 2.7165 14.5082 1.75 14.5082C0.783502 14.5082 0 15.1577 0 15.959C0 16.7603 0.783502 17.4098 1.75 17.4098Z" fill="#B39365"/>
<path d="M29.855 7.25415H8.645C7.73649 7.25415 7 7.86473 7 8.61793V8.79203C7 9.54522 7.73649 10.1558 8.645 10.1558H29.855C30.7635 10.1558 31.5 9.54522 31.5 8.79203V8.61793C31.5 7.86473 30.7635 7.25415 29.855 7.25415Z" fill="#B39365"/>
<path d="M29.855 14.5082H8.645C7.73649 14.5082 7 15.1188 7 15.872V16.0461C7 16.7992 7.73649 17.4098 8.645 17.4098H29.855C30.7635 17.4098 31.5 16.7992 31.5 16.0461V15.872C31.5 15.1188 30.7635 14.5082 29.855 14.5082Z" fill="#B39365"/>
<path d="M29.855 0H8.645C7.73649 0 7 0.610584 7 1.36378V1.53788C7 2.29107 7.73649 2.90165 8.645 2.90165H29.855C30.7635 2.90165 31.5 2.29107 31.5 1.53788V1.36378C31.5 0.610584 30.7635 0 29.855 0Z" fill="#B39365"/>
</svg>
