<svg width="24" height="24" viewBox="0 0 24 24" fill="none" xmlns="http://www.w3.org/2000/svg">
<path d="M12 14.75H7.00002C6.59002 14.75 6.25002 14.41 6.25002 14C6.25002 13.59 6.59002 13.25 7.00002 13.25H12C12.41 13.25 12.75 13.59 12.75 14C12.75 14.41 12.41 14.75 12 14.75ZM7.00002 6.708C6.81002 6.708 6.62002 6.638 6.47002 6.488L2.72002 2.73799C2.58054 2.59686 2.50232 2.40643 2.50232 2.20799C2.50232 2.00956 2.58054 1.81913 2.72002 1.67799C3.01002 1.388 3.49002 1.388 3.78002 1.67799L7.53002 5.42799C7.82002 5.71799 7.82002 6.198 7.53002 6.488C7.38002 6.628 7.19002 6.708 7.00002 6.708V6.708Z" fill="#BD937B"/>
<path d="M3.20998 6.75099C3.01998 6.75099 2.82998 6.68099 2.67998 6.53099C2.5405 6.38986 2.46228 6.19942 2.46228 6.00099C2.46228 5.80256 2.5405 5.61213 2.67998 5.47099L6.42998 1.72099C6.71998 1.43099 7.19998 1.43099 7.48998 1.72099C7.77998 2.01099 7.77998 2.49099 7.48998 2.78099L3.73998 6.53099C3.59998 6.68099 3.39998 6.75099 3.20998 6.75099ZM15 10.75H6.99998C6.58998 10.75 6.24998 10.41 6.24998 9.99999C6.24998 9.58999 6.58998 9.24999 6.99998 9.24999H15C15.41 9.24999 15.75 9.58999 15.75 9.99999C15.75 10.41 15.41 10.75 15 10.75Z" fill="#BD937B"/>
<path d="M21 16.75C20.59 16.75 20.25 16.41 20.25 16V7.99C20.25 3.76 18.81 2.9 15.96 2.75H10C9.59 2.75 9.25 2.41 9.25 2C9.25 1.59 9.59 1.25 10 1.25H16C20.1 1.47 21.75 3.42 21.75 7.99V16C21.75 16.41 21.41 16.75 21 16.75ZM15 22.752H9C3.38 22.752 2.25 20.162 2.25 15.982V9.012C2.25 8.602 2.59 8.262 3 8.262C3.41 8.262 3.75 8.602 3.75 9.012V15.982C3.75 19.702 4.48 21.252 9 21.252H15C15.41 21.252 15.75 21.592 15.75 22.002C15.75 22.412 15.41 22.752 15 22.752Z" fill="#BD937B"/>
<path d="M15 22.75C14.8013 22.7492 14.611 22.6699 14.4705 22.5295C14.3301 22.389 14.2508 22.1987 14.25 22V19C14.25 16.58 15.58 15.25 18 15.25H21C21.3 15.25 21.58 15.43 21.69 15.71C21.8 15.99 21.74 16.31 21.53 16.53L15.53 22.53C15.39 22.67 15.19 22.75 15 22.75V22.75ZM18 16.75C16.42 16.75 15.75 17.42 15.75 19V20.19L19.19 16.75H18Z" fill="#BD937B"/>
</svg>
