<svg width="33" height="33" viewBox="0 0 33 33" fill="none" xmlns="http://www.w3.org/2000/svg">
<path d="M12.7957 29.0689C11.9037 29.0689 12.0563 28.7317 11.748 27.885L9.1286 19.2617L29.2957 7.29712L12.7957 29.0689Z" fill="#B39365"/>
<path d="M12.7958 29.0689C13.4836 29.0689 13.7878 28.7544 14.1704 28.3811L17.8376 24.815L13.2629 22.0574L12.7958 29.0689Z" fill="#B39365"/>
<path d="M13.2629 22.0595L24.3457 30.2476C25.6121 30.9447 26.5227 30.5838 26.8383 29.073L31.35 7.81378C31.812 5.96165 30.6446 5.12221 29.4339 5.67084L2.94317 15.8864C1.13436 16.6114 1.14673 17.621 2.61317 18.0696L9.41117 20.1919L25.1491 10.263C25.8926 9.81234 26.5743 10.0547 26.0153 10.5517L13.2629 22.0595Z" fill="#B39365"/>
<path d="M25.4585 31.1056C25.0439 31.1056 24.5891 30.9695 24.0972 30.6982L12.9566 22.473C12.8318 22.3812 12.7555 22.2379 12.7473 22.0832C12.7401 21.9285 12.8019 21.779 12.9174 21.6748L26.1133 9.79995C26.3247 9.60917 26.6506 9.62567 26.8414 9.83811C27.0321 10.0495 27.0146 10.3754 26.8032 10.5662L14.0776 22.0192L24.652 29.832C24.9315 29.9815 25.4038 30.1713 25.74 30.0155C26.0824 29.8588 26.2515 29.3586 26.334 28.9668L30.8457 7.70548C31.021 7.0032 30.9365 6.43808 30.624 6.1782C30.3858 5.9802 30.031 5.96577 29.6474 6.13902L3.12777 16.367C2.31412 16.6939 2.05837 17.03 2.06249 17.1414C2.06559 17.2146 2.2409 17.4168 2.76374 17.5766L9.33796 19.6288L16.5557 15.0748C16.797 14.9242 17.1146 14.9954 17.2662 15.2357C17.4178 15.476 17.3466 15.7946 17.1053 15.9462L9.68652 20.627C9.55865 20.7075 9.40087 20.7281 9.25752 20.6838L2.45952 18.5615C1.25296 18.1923 1.04671 17.5405 1.03227 17.1847C1.01165 16.697 1.29318 15.9916 2.75137 15.4079L29.2493 5.19027C29.9681 4.86233 30.7395 4.93245 31.285 5.38723C31.9172 5.9142 32.1234 6.84439 31.8512 7.93855L27.3436 29.1802C27.1538 30.0857 26.7599 30.6828 26.1711 30.953C25.9493 31.055 25.7121 31.1056 25.4585 31.1056Z" fill="#B39365"/>
<path d="M25.4585 31.1056C25.0439 31.1056 24.5891 30.9695 24.0972 30.6982L17.1672 25.5843C16.9383 25.4151 16.8888 25.0913 17.0589 24.8634C17.2281 24.6345 17.5519 24.585 17.7798 24.7551L24.652 29.832C24.9315 29.9815 25.4038 30.1713 25.74 30.0155C26.0824 29.8588 26.2515 29.3586 26.334 28.9668L30.8457 7.70548C31.021 7.0032 30.9365 6.43808 30.624 6.1782C30.3858 5.9802 30.031 5.96577 29.6474 6.13902L3.12777 16.367C2.31412 16.6939 2.05837 17.03 2.06249 17.1414C2.06559 17.2146 2.2409 17.4168 2.76374 17.5766L9.5638 19.6989C9.72674 19.7495 9.85359 19.8784 9.90412 20.0413L12.242 27.7355C12.3049 27.9077 12.3533 28.0789 12.3956 28.2274C12.4286 28.3449 12.4699 28.4914 12.4977 28.5347C12.4936 28.5295 12.5761 28.5543 12.7957 28.5553C13.2567 28.5553 13.432 28.3831 13.7826 28.0417L15.4945 26.3773C15.6987 26.1772 16.0246 26.1834 16.2236 26.3876C16.4216 26.5918 16.4175 26.9187 16.2133 27.1167L14.5303 28.7512C14.1157 29.1565 13.6764 29.5855 12.7957 29.5855C11.7851 29.5855 11.5809 29.138 11.4025 28.5068C11.3664 28.379 11.3252 28.2315 11.2633 28.0613L8.99662 20.6023L2.45952 18.5615C1.25296 18.1923 1.04671 17.5405 1.03227 17.1847C1.01165 16.697 1.29318 15.9916 2.75137 15.4079L29.2493 5.19027C29.9681 4.86233 30.7395 4.93245 31.285 5.38723C31.9172 5.9142 32.1234 6.84439 31.8512 7.93855L27.3436 29.1802C27.1538 30.0857 26.7599 30.6828 26.1711 30.953C25.9493 31.055 25.7121 31.1056 25.4585 31.1056Z" fill="#B39365"/>
<path d="M19.0781 14.4375C19.0781 14.7211 18.8461 14.9531 18.5625 14.9531C18.2789 14.9531 18.0469 14.7211 18.0469 14.4375C18.0469 14.1539 18.2789 13.9219 18.5625 13.9219C18.8461 13.9219 19.0781 14.1539 19.0781 14.4375Z" fill="#B39365"/>
</svg>
