<svg width="33" height="33" viewBox="0 0 33 33" fill="none" xmlns="http://www.w3.org/2000/svg">
<g clip-path="url(#clip0_102_323)">
<path d="M16.5 0C13.5381 -4.88761e-06 10.6308 0.79727 8.08325 2.30815C5.53569 3.81903 3.44179 5.98781 2.02131 8.58687C0.600827 11.1859 -0.0938542 14.1194 0.0101711 17.0795C0.114196 20.0396 1.01309 22.9171 2.61252 25.41L1.88611e-05 32.065C-0.0419146 32.1729 -0.0559353 32.2896 -0.0407436 32.4043C-0.0255519 32.5191 0.0183606 32.6281 0.0869232 32.7214C0.155486 32.8146 0.246479 32.889 0.351469 32.9377C0.456459 32.9865 0.572047 33.0079 0.687519 33C0.76484 33.0136 0.843947 33.0136 0.921269 33L7.79627 30.5387C9.96598 31.8787 12.4167 32.6974 14.9561 32.9307C17.4955 33.1641 20.0544 32.8056 22.432 31.8836C24.8096 30.9615 26.941 29.5009 28.6591 27.6164C30.3772 25.732 31.635 23.4749 32.334 21.0225C33.033 18.57 33.154 15.989 32.6875 13.4819C32.2211 10.9748 31.1799 8.61 29.6457 6.57305C28.1115 4.5361 26.126 2.88248 23.8451 1.74202C21.5643 0.601549 19.0501 0.00527307 16.5 0V0ZM24.75 21.3125C24.586 22.2835 24.08 23.1639 23.3234 23.7943C22.5669 24.4248 21.6097 24.7638 20.625 24.75C18.4663 24.75 14.3138 22.165 12.5813 20.4188C10.8488 18.6725 8.25002 14.5338 8.25002 12.375C8.23626 11.3903 8.57525 10.4332 9.2057 9.67661C9.83616 8.92007 10.7165 8.41404 11.6875 8.25H13.0625C13.1914 8.24974 13.3177 8.2857 13.4271 8.35377C13.5365 8.42184 13.6246 8.51929 13.6813 8.635C13.6813 8.635 14.5063 10.3125 15.0563 11.385C15.6063 12.4575 14.52 13.9837 13.86 14.6437C14.2535 15.6674 14.8472 16.6023 15.6063 17.3937C16.3978 18.1528 17.3327 18.7465 18.3563 19.14C19.0036 18.3955 19.8963 17.9077 20.8725 17.765C21.1262 17.7658 21.376 17.8271 21.6013 17.9438C22.66 18.48 24.3513 19.3188 24.3513 19.3188C24.467 19.3754 24.5644 19.4635 24.6325 19.5729C24.7006 19.6823 24.7365 19.8086 24.7363 19.9375L24.75 21.3125Z" fill="#B39365"/>
</g>
<defs>
<clipPath id="clip0_102_323">
<rect width="33" height="33" fill="white"/>
</clipPath>
</defs>
</svg>
