<svg width="50" height="50" viewBox="0 0 50 50" fill="none" xmlns="http://www.w3.org/2000/svg">
<g clip-path="url(#clip0_682_2)">
<path d="M25 50C38.8071 50 50 38.8071 50 25C50 11.1929 38.8071 0 25 0C11.1929 0 0 11.1929 0 25C0 38.8071 11.1929 50 25 50Z" fill="#BD937B"/>
</g>
<g clip-path="url(#clip1_682_2)">
<path fill-rule="evenodd" clip-rule="evenodd" d="M21.7598 22.4634C21.6307 22.6165 21.6952 22.4634 21.5984 22.6931C21.5338 22.8462 21.5661 22.6931 21.4692 22.961C21.4692 22.9993 21.34 23.4969 21.3078 23.5735C20.9203 25.6404 22.3087 25.8317 22.7285 27.0183C22.9868 27.7455 23.7295 31.3435 23.7295 32.6066C24.117 32.2239 25.0211 32.2621 25.5378 32.4918C25.9575 31.5349 25.7638 27.9369 25.6023 26.5207C25.1826 22.9227 24.9888 25.6404 26.5065 22.9227C26.9908 22.0424 27.0231 21.7745 27.3783 21.0089L27.4752 20.8558L27.5075 20.2434L25.4409 19.6693L25.4732 21.7362C25.0211 22.0807 22.2765 22.7696 21.6952 22.4634H21.7598Z" fill="#7E563E"/>
<path fill-rule="evenodd" clip-rule="evenodd" d="M20.6944 12.5499C20.0809 14.2341 20.3715 14.1575 20.3715 15.88C20.3715 15.9182 20.4038 15.9182 20.4038 15.9565L20.8236 17.6024C20.9527 17.7555 20.9527 17.3727 20.9527 18.0234L21.4694 20.1286C21.5662 20.741 21.5985 22.0807 21.7923 22.4635C22.3735 22.7696 25.0859 22.0807 25.5702 21.7362L25.5379 19.6693C24.6661 19.4014 24.4724 18.9421 23.988 18.4061C23.3099 17.6789 21.6631 16.1479 21.6631 14.9613C21.6631 13.8513 22.5349 13.6217 23.1485 14.0427C23.0516 13.6599 22.761 13.2006 22.4704 13.0475C21.5985 12.7413 21.986 12.3968 20.759 12.5882L20.6944 12.5499Z" fill="#B39365"/>
<path fill-rule="evenodd" clip-rule="evenodd" d="M23.7634 32.6065C23.6665 33.1424 23.5696 33.4869 23.4727 34.1758C23.279 35.592 23.6019 38.0035 23.4082 39.879C23.2467 41.3335 23.0207 41.6014 23.7956 41.6397H26.9924C27.3799 41.5632 27.6382 41.3718 27.735 40.9507C27.0247 40.7593 26.4434 40.4914 25.7653 40.1852C24.9258 39.8407 24.829 39.3431 24.8935 38.0035L25.281 35.4007C25.4747 33.9079 25.1518 34.8648 25.5716 32.4917C25.055 32.2237 24.1508 32.1855 23.7634 32.6065Z" fill="#E5BBB3"/>
<path fill-rule="evenodd" clip-rule="evenodd" d="M20.5982 9.87061V10.8275C20.1785 10.0237 20.5014 9.98544 20.5982 9.87061ZM21.8898 7.30611C21.5023 7.38266 21.0826 7.65059 20.792 8.07163C20.5659 8.37784 20.6305 8.41612 20.5014 8.64577C20.243 9.10508 18.9514 9.64095 19.016 11.593C19.0483 12.3586 19.242 12.3203 19.4035 13.0475C19.5972 13.8896 19.3712 13.9279 19.3712 14.6934C19.6941 14.4255 19.6618 14.2724 19.8233 14.0045C19.791 14.923 19.3712 15.6503 19.6941 16.6837C19.8233 17.1048 20.4691 18.3296 20.9534 18.0234C20.8243 17.8703 20.8243 18.2531 20.8243 17.6024C20.7274 17.4493 20.792 17.6024 20.6305 17.2962L20.5014 16.9134C20.4045 16.5306 20.3399 16.3775 20.3722 15.88C20.3722 14.1576 20.0816 14.1958 20.6951 12.5499L20.7274 11.861C20.5336 11.4399 20.5982 11.5165 20.5982 10.9041L20.8243 11.1337C21.3409 10.9806 21.1472 10.7127 21.2763 10.1385C21.4055 9.60267 21.5346 9.67923 21.6961 9.18164C22.4065 9.37302 21.7607 9.48785 22.5356 9.67923C23.0846 8.95198 22.019 9.75578 23.7627 8.49266C23.7304 7.88025 23.246 7.42093 22.6648 7.30611H21.8898Z" fill="#7E563E"/>
<path fill-rule="evenodd" clip-rule="evenodd" d="M25.4734 19.669L27.5399 20.2432C28.4118 20.3963 28.3149 20.1284 28.767 19.5925L27.9274 19.1332L26.3129 18.1763C25.99 18.0997 25.3765 17.8318 25.1505 17.6021C24.8599 17.296 24.763 16.7984 24.5047 16.3773C24.2141 15.8797 24.0203 15.7649 23.762 15.2673C23.5037 14.808 23.4391 14.3104 23.1162 14.0425C22.535 13.6214 21.6309 13.8511 21.6309 14.9611C21.6309 16.1476 23.2777 17.6787 23.9557 18.4059C24.4401 18.9418 24.6338 19.4011 25.5057 19.669H25.4734Z" fill="#E5BBB3"/>
<path fill-rule="evenodd" clip-rule="evenodd" d="M27.929 19.1334L28.7686 19.5927C28.3165 20.1286 28.4134 20.3966 27.5416 20.2434L27.5093 20.8559C27.5093 21.3152 27.6061 21.6596 27.6707 22.119C27.7353 22.54 27.8322 24.0328 27.6384 24.4921C27.5093 24.8365 27.3801 24.76 27.2186 25.0662C26.7666 25.9849 27.7676 25.7169 28.478 27.3245C28.6394 27.7073 29.1883 28.5877 29.479 28.7025C30.0279 28.9321 29.8988 28.6642 29.9633 28.4728C30.0925 28.0517 29.6727 28.6259 29.3821 27.2863L29.0915 25.3342C28.9623 24.3773 28.8978 22.0807 29.1883 21.3534C28.9946 21.2003 28.8655 21.0855 28.6717 20.8941L28.2196 20.2052C28.704 19.7076 28.704 19.4396 29.5113 19.0952C29.5113 18.2913 29.6404 17.7172 29.6404 16.7603C28.7686 17.1048 28.7686 18.6358 27.929 19.0952V19.1334Z" fill="#E5BBB3"/>
<path fill-rule="evenodd" clip-rule="evenodd" d="M20.8245 11.1718C20.8245 11.2866 20.8245 11.478 20.8245 11.5928C20.7922 11.8225 20.7922 11.7842 20.7276 11.8607L20.6953 12.5497C21.9223 12.3583 21.5349 12.7028 22.4067 13.009C22.439 12.4349 22.4713 12.6645 22.5358 12.1287C22.9879 12.1669 22.9879 12.2818 23.5691 12.2818C23.9243 11.4397 23.5368 11.2483 24.2472 10.6742C23.8275 9.60245 24.0212 9.71728 23.9566 9.14313L23.7952 8.53072C22.0515 9.79382 23.1171 8.95175 22.5681 9.71728C21.8255 9.5259 22.439 9.41107 21.7286 9.21969C21.5671 9.71728 21.438 9.64072 21.3088 10.1766C21.1797 10.789 21.3411 11.0569 20.8568 11.1718H20.8245Z" fill="#E5BBB3"/>
<path fill-rule="evenodd" clip-rule="evenodd" d="M26.3136 18.1766L27.9281 19.1335C28.7676 18.6741 28.7676 17.1814 29.6394 16.7986C29.2197 15.191 27.7666 16.3011 26.9594 17.2962C26.6687 17.6407 26.4427 17.8321 26.2812 18.2148L26.3136 18.1766Z" fill="#7E563E"/>
<path fill-rule="evenodd" clip-rule="evenodd" d="M29.1874 21.3917C29.5426 21.3152 29.801 20.9707 29.8978 20.5114C30.0593 19.7076 29.5426 20.2817 29.7363 19.2483C29.6072 19.0569 29.7363 19.1717 29.5103 19.1335C28.7353 19.4397 28.7353 19.7459 28.2188 20.2435L28.6708 20.9324C28.8645 21.1238 28.9614 21.2386 29.1874 21.3917Z" fill="#E5BBB3"/>
</g>
<defs>
<clipPath id="clip0_682_2">
<rect width="50" height="50" fill="white"/>
</clipPath>
<clipPath id="clip1_682_2">
<rect width="11" height="35" fill="white" transform="translate(19 7)"/>
</clipPath>
</defs>
</svg>
