<svg width="50" height="50" viewBox="0 0 50 50" fill="none" xmlns="http://www.w3.org/2000/svg">
<g clip-path="url(#clip0_607_560)">
<path d="M25 50C38.8071 50 50 38.8071 50 25C50 11.1929 38.8071 0 25 0C11.1929 0 0 11.1929 0 25C0 38.8071 11.1929 50 25 50Z" fill="#BD937B"/>
<path d="M34.9154 13.6667H15.082C13.9549 13.6667 12.8739 14.1145 12.0768 14.9115C11.2798 15.7085 10.832 16.7895 10.832 17.9167V32.0834C10.832 33.2105 11.2798 34.2915 12.0768 35.0886C12.8739 35.8856 13.9549 36.3334 15.082 36.3334H34.9154C36.0425 36.3334 37.1235 35.8856 37.9206 35.0886C38.7176 34.2915 39.1654 33.2105 39.1654 32.0834V17.9167C39.1654 16.7895 38.7176 15.7085 37.9206 14.9115C37.1235 14.1145 36.0425 13.6667 34.9154 13.6667ZM33.9662 16.5L24.9987 23.2292L16.0312 16.5H33.9662ZM34.9154 33.5H15.082C14.7063 33.5 14.346 33.3508 14.0803 33.0851C13.8146 32.8194 13.6654 32.4591 13.6654 32.0834V18.2709L24.1487 26.1334C24.3939 26.3173 24.6922 26.4167 24.9987 26.4167C25.3052 26.4167 25.6035 26.3173 25.8487 26.1334L36.332 18.2709V32.0834C36.332 32.4591 36.1828 32.8194 35.9171 33.0851C35.6514 33.3508 35.2911 33.5 34.9154 33.5Z" fill="#7E563E"/>
</g>
<defs>
<clipPath id="clip0_607_560">
<rect width="50" height="50" fill="white"/>
</clipPath>
</defs>
</svg>
