<svg width="50" height="50" viewBox="0 0 50 50" fill="none" xmlns="http://www.w3.org/2000/svg">
<g clip-path="url(#clip0_605_146)">
<path d="M25 50C38.8071 50 50 38.8071 50 25C50 11.1929 38.8071 0 25 0C11.1929 0 0 11.1929 0 25C0 38.8071 11.1929 50 25 50Z" fill="#BD937B"/>
<path d="M23.7344 8.23313C23.7196 8.04862 23.6382 7.87526 23.5047 7.74584C23.3622 7.60772 23.1716 7.53048 22.9731 7.53048C22.7747 7.53048 22.5841 7.60772 22.4416 7.74584C22.3 7.88312 22.217 8.06984 22.21 8.26685V15.3506V15.3618L22.2097 15.3617C22.1955 15.6788 22.0576 15.9777 21.8254 16.1941C21.5933 16.4105 21.2855 16.5272 20.9682 16.5192C20.651 16.5111 20.3495 16.3789 20.1287 16.151C19.908 15.9233 19.7854 15.6181 19.7871 15.301M23.7344 8.23313L20.0371 15.3018M23.7344 8.23313V8.26269V18.1172V18.1173C23.7347 19.1601 23.3888 20.1735 22.7511 20.9985C22.1133 21.8235 21.2198 22.4136 20.2105 22.676L20.0123 22.7275L20.0238 22.932L21.017 40.6009L21.017 40.6009L21.0173 40.6057C21.0571 41.1336 20.8856 41.6557 20.5405 42.0572C20.1954 42.4586 19.7049 42.7065 19.177 42.7463C18.6491 42.7861 18.127 42.6146 17.7256 42.2695C17.3241 41.9244 17.0762 41.4339 17.0364 40.906L17.0363 40.9053C17.0286 40.8058 17.0286 40.7059 17.0363 40.6064L17.0364 40.6064L17.0367 40.6008L18.023 22.9319L18.0345 22.7275L17.8364 22.676C16.8271 22.4136 15.9336 21.8235 15.2958 20.9985C14.6581 20.1735 14.3122 19.1601 14.3125 18.1173V18.1172V8.26684C14.3195 8.06983 14.4025 7.88312 14.5441 7.74584C14.6866 7.60772 14.8772 7.53048 15.0757 7.53048C15.2741 7.53048 15.4648 7.60772 15.6072 7.74584C15.7488 7.88312 15.8318 8.06983 15.8389 8.26685M23.7344 8.23313L23.9844 8.26269V8.51269V18.1172C23.9847 19.2153 23.6205 20.2825 22.9489 21.1514C22.2773 22.0202 21.3363 22.6416 20.2734 22.918L21.2666 40.5869C21.3114 41.1809 21.1184 41.7684 20.7301 42.2201C20.3417 42.6719 19.7898 42.9508 19.1958 42.9956C18.6018 43.0404 18.0143 42.8474 17.5626 42.4591C17.1109 42.0707 16.8319 41.5188 16.7871 40.9248C16.7783 40.8123 16.7783 40.6994 16.7871 40.5869L17.7734 22.918C16.7106 22.6416 15.7696 22.0202 15.098 21.1514C14.4264 20.2825 14.0622 19.2153 14.0625 18.1172V8.26269C14.0707 7.99942 14.181 7.74967 14.3701 7.56634C14.5592 7.383 14.8123 7.28048 15.0757 7.28048C15.3391 7.28048 15.5921 7.383 15.7812 7.56634C15.9704 7.74967 16.0807 7.99942 16.0889 8.26269M19.7871 15.301C19.7871 15.3008 19.7871 15.3005 19.7871 15.3002L20.0371 15.3018M19.7871 15.301V15.3018H20.0371M19.7871 15.301V8.26562V8.2655V8.26538V8.26526V8.26514V8.26502V8.2649V8.26478V8.26466V8.26454V8.26442V8.2643V8.26418V8.26406V8.26394V8.26382V8.2637V8.26357V8.26345V8.26333V8.26321V8.26309V8.26297V8.26285V8.26273V8.26261V8.26249V8.26237V8.26225V8.26213V8.26201V8.26189V8.26176V8.26164V8.26152V8.2614V8.26128V8.26116V8.26104V8.26092V8.2608V8.26068V8.26055V8.26043V8.26031V8.26019V8.26007V8.25995V8.25983V8.25971V8.25959V8.25946V8.25934V8.25922V8.2591V8.25898V8.25886V8.25874V8.25862V8.25849V8.25837V8.25825V8.25813V8.25801V8.25789V8.25777V8.25765V8.25752V8.2574V8.25728V8.25716V8.25704V8.25692V8.25679V8.25667V8.25655V8.25643V8.25631V8.25619V8.25606V8.25594V8.25582V8.2557V8.25558V8.25546V8.25533V8.25521V8.25509V8.25497V8.25485V8.25473V8.2546V8.25448V8.25436V8.25424V8.25412V8.25399V8.25387V8.25375V8.25363V8.25351V8.25338V8.25326V8.25314V8.25302V8.2529V8.25277V8.25265V8.25253V8.25241V8.25229V8.25216V8.25204V8.25192V8.2518V8.25168V8.25155V8.25143V8.25131V8.25119V8.25107V8.25094V8.25082V8.2507V8.25058V8.25045V8.25033V8.25021V8.25009V8.24996V8.24984V8.24972V8.2496V8.24948V8.24935V8.24923V8.24911V8.24899V8.24886V8.24874V8.24862V8.2485V8.24837V8.24825V8.24813V8.24801V8.24788V8.24776V8.24764V8.24752V8.24739V8.24727V8.24715V8.24703V8.2469V8.24678V8.24666V8.24654V8.24641V8.24629V8.24617V8.24605V8.24592V8.2458V8.24568V8.24555V8.24543V8.24531V8.24519V8.24506V8.24494V8.24482V8.2447V8.24457V8.24445V8.24433V8.2442V8.24408V8.24396V8.24384V8.24371V8.24359V8.24347V8.24335V8.24322V8.2431V8.24298V8.24285V8.24273V8.24261V8.24249V8.24236V8.24224V8.24212V8.24199V8.24187V8.24175V8.24163V8.2415V8.24138V8.24126V8.24113V8.24101V8.24089V8.24077V8.24064V8.24052V8.2404V8.24027V8.24015V8.24003V8.23991V8.23978V8.23966V8.23954V8.23941V8.23929V8.23917V8.23904V8.23892V8.2388V8.23868V8.23855V8.23843V8.23831V8.23818V8.23806V8.23794V8.23781V8.23769V8.23757V8.23745V8.23732V8.2372V8.23708V8.23695V8.23683V8.23671V8.23658V8.23646V8.23634V8.23622V8.23609V8.23597V8.23585V8.23572V8.2356V8.23548V8.23535V8.23523V8.23511V8.23499V8.23486V8.23474V8.23462V8.23449V8.23437V8.23425V8.23412V8.234V8.23388V8.23376V8.23363V8.23351V8.23339V8.23326V8.23314V8.23302V8.23289V8.23277V8.23265V8.23253V8.2324V8.23228V8.23216V8.23203V8.23191V8.23179V8.23166V8.23154V8.23142V8.23129V8.23117V8.23105V8.23093V8.2308V8.23068V8.23056V8.23043V8.23031V8.23019V8.23007V8.22994V8.22982V8.2297V8.22957V8.22945V8.22933V8.2292V8.22908V8.22896V8.22884V8.22871V8.22859V8.22847V8.22834V8.22822V8.2281V8.22798V8.22785V8.22773V8.22761V8.22748V8.22736V8.22724V8.22712V8.22699V8.22687V8.22675V8.22662V8.2265V8.22638V8.22626V8.22613V8.22601V8.22589V8.22576V8.22564V8.22552V8.2254V8.22527V8.22515V8.22503V8.2249V8.22478V8.22466V8.22454V8.22441V8.22429V8.22417V8.22405V8.22392V8.2238V8.22368V8.22355V8.22343V8.22331V8.22319V8.22306V8.22294V8.22282V8.2227V8.22257V8.22245V8.22233V8.22221V8.22208V8.22196V8.22184V8.22171V8.22159V8.22147V8.22135V8.22122V8.2211V8.22098V8.22086V8.22073V8.22061V8.22049V8.22037V8.22024V8.22012V8.22V8.21988V8.21976V8.21963V8.21951V8.21939V8.21927V8.21914V8.21902V8.2189V8.21878V8.21865V8.21853V8.21841V8.21829V8.21816V8.21804V8.21792V8.2178V8.21768V8.21755V8.21743V8.21731V8.21719V8.21706V8.21694V8.21682V8.2167V8.21658V8.21645V8.21633V8.21621V8.21609V8.21597V8.21584V8.21572V8.2156V8.21548V8.21536V8.21523V8.21511V8.21499V8.21487V8.21475V8.21462V8.2145V8.21438V8.21426V8.21414V8.21402V8.21389V8.21377V8.21365V8.21353V8.21341V8.21328V8.21316V8.21304V8.21292V8.2128V8.21268V8.21255V8.21243V8.21231V8.21219V8.21207V8.21195V8.21182V8.2117V8.21158V8.21146V8.21134V8.21122V8.2111V8.21097V8.21085V8.21073V8.21061V8.21049V8.21037V8.21025V8.21012V8.21V8.20988V8.20976V8.20964V8.20952V8.2094V8.20928V8.20915V8.20903V8.20891V8.20879V8.20867V8.20855V8.20843V8.20831V8.20819V8.20806V8.20794V8.20782V8.2077V8.20758V8.20746V8.20739M20.0371 15.3018V8.26562V8.20312M19.7871 8.20739C19.7872 8.20862 19.7872 8.20985 19.7872 8.21108L20.0371 8.20312M19.7871 8.20739C19.7797 8.00683 19.6935 7.81722 19.5471 7.67983C19.3998 7.5416 19.2035 7.46755 19.0016 7.47399C18.7997 7.48042 18.6086 7.56681 18.4704 7.71414C18.3321 7.86148 18.2581 8.05769 18.2645 8.25961L18.2648 8.26757H18.2646V15.2988C18.2646 15.6205 18.1369 15.929 17.9094 16.1565C17.6819 16.3839 17.3734 16.5117 17.0518 16.5117C16.7301 16.5117 16.4216 16.3839 16.1941 16.1565C15.9667 15.929 15.8389 15.6205 15.8389 15.2988V8.26685M19.7871 8.20739V8.20734V8.20722V8.2071V8.20698V8.20686V8.20673V8.20661V8.20649V8.20637V8.20625V8.20613V8.20601V8.20589V8.20577V8.20565V8.20553V8.20541V8.20529V8.20517V8.20505V8.20493V8.2048V8.20468V8.20456V8.20444V8.20432V8.2042V8.20408V8.20396V8.20384V8.20372V8.2036V8.20348V8.20336V8.20324V8.20312H20.0371M20.0371 8.20312L15.8389 8.26685M15.8389 8.26685C15.8389 8.26805 15.839 8.26925 15.839 8.27045L16.0889 8.26269M15.8389 8.26685L18.0146 8.26757V15.2988C18.0146 15.5542 17.9132 15.7991 17.7326 15.9797C17.552 16.1603 17.3071 16.2617 17.0518 16.2617C16.7964 16.2617 16.5515 16.1603 16.3709 15.9797C16.1903 15.7991 16.0889 15.5542 16.0889 15.2988V8.26269M15.8389 8.26685V8.26269H16.0889" fill="white" stroke="#7E563E" stroke-width="0.5"/>
<path d="M34.2894 27.4033H32.1187C32.1647 25.9353 30.81 24.6923 29.1082 24.5295L29.1079 24.5294C28.7579 24.4963 28.4051 24.5057 28.0573 24.5574L28.0487 24.5587L28.0401 24.5606C28.0025 24.5689 27.9637 24.5697 27.9258 24.563C27.8879 24.5563 27.8517 24.5422 27.8193 24.5215C27.7868 24.5008 27.7588 24.4739 27.7367 24.4424C27.7147 24.4109 27.6991 24.3753 27.6908 24.3377L27.6903 24.3358C27.6851 24.313 27.6829 24.2896 27.6838 24.2661L27.6839 24.2661L27.6839 24.2587C27.7072 21.0893 28.2812 16.8442 30.5683 12.4894C31.5767 10.5723 32.8274 8.79299 34.2894 7.19525V27.4033Z" fill="white" stroke="#7E563E" stroke-width="0.5"/>
<path d="M34.7422 27.6533C34.8309 27.6533 34.9159 27.6885 34.9787 27.7511C35.0415 27.8137 35.0769 27.8986 35.0771 27.9873V40.9053C35.0771 42.1396 34.1445 43.2236 32.9131 43.2988C32.3021 43.3354 31.7016 43.1281 31.2433 42.7224C30.785 42.3167 30.5065 41.7457 30.4688 41.1348C30.4688 41.0869 30.4688 41.0371 30.4688 40.9912V27.9873C30.469 27.8986 30.5044 27.8137 30.5672 27.7511C30.63 27.6885 30.715 27.6533 30.8037 27.6533H34.7422Z" fill="#7E563E"/>
</g>
<defs>
<clipPath id="clip0_605_146">
<rect width="50" height="50" fill="white"/>
</clipPath>
</defs>
</svg>
