<svg width="50" height="50" viewBox="0 0 50 50" fill="none" xmlns="http://www.w3.org/2000/svg">
<g clip-path="url(#clip0_607_485)">
<path d="M50 25C50 25.83 50 26.64 49.88 27.44C49.88 27.76 49.81 28.08 49.77 28.44C48.992 34.107 46.2942 39.3358 42.1267 43.2539C37.9592 47.1721 32.5741 49.5426 26.87 49.97C26.5 49.97 26.14 49.97 25.77 50.03H25C20.0567 50.03 15.2244 48.5645 11.1139 45.8188C7.00328 43.0731 3.79896 39.1704 1.90589 34.604C0.0128198 30.0376 -0.484012 25.0124 0.478189 20.1637C1.44039 15.315 3.81843 10.8604 7.31174 7.36291C10.8051 3.86541 15.2568 1.48203 20.1044 0.514011C24.9519 -0.454005 29.9776 0.0368003 34.5463 1.92439C39.115 3.81198 43.0215 7.01163 45.7722 11.1189C48.5228 15.2262 49.9941 20.0567 50 25Z" fill="#BD937B"/>
<mask id="path-2-inside-1_607_485" fill="white">
<path d="M28.9993 20.68C29.1208 20.5616 29.2174 20.4201 29.2834 20.2639C29.3494 20.1076 29.3834 19.9396 29.3834 19.77C29.3834 19.6003 29.3494 19.4324 29.2834 19.2761C29.2174 19.1198 29.1208 18.9783 28.9993 18.86L23.8693 13.73C23.6275 13.4894 23.3003 13.3543 22.9593 13.3543C22.6182 13.3543 22.291 13.4894 22.0493 13.73L21.4793 14.3C21.3355 14.4458 21.2292 14.6242 21.1693 14.82L20.7693 14.42C20.6334 14.2821 20.4715 14.1726 20.293 14.0979C20.1144 14.0232 19.9228 13.9847 19.7293 13.9847C19.5357 13.9847 19.3441 14.0232 19.1656 14.0979C18.987 14.1726 18.8251 14.2821 18.6893 14.42L17.9193 15.19C17.6457 15.467 17.4923 15.8406 17.4923 16.23C17.4923 16.6193 17.6457 16.993 17.9193 17.27L20.2593 19.62L13.1293 26.75L10.8293 24.4C10.5523 24.1264 10.1786 23.973 9.78926 23.973C9.39993 23.973 9.02627 24.1264 8.74926 24.4L7.99926 25.18C7.86139 25.3158 7.75191 25.4777 7.67717 25.6563C7.60244 25.8348 7.56396 26.0264 7.56396 26.22C7.56396 26.4135 7.60244 26.6051 7.67717 26.7837C7.75191 26.9622 7.86139 27.1241 7.99926 27.26L8.39926 27.66C8.20038 27.7195 8.01864 27.8258 7.86926 27.97L7.30926 28.53C7.06866 28.7717 6.93359 29.0989 6.93359 29.44C6.93359 29.781 7.06866 30.1082 7.30926 30.35L12.4393 35.48C12.5583 35.6003 12.7 35.6958 12.8562 35.761C13.0124 35.8262 13.18 35.8598 13.3493 35.8598C13.5185 35.8598 13.6861 35.8262 13.8423 35.761C13.9985 35.6958 14.1402 35.6003 14.2593 35.48L14.8293 34.92C14.973 34.7742 15.0794 34.5958 15.1393 34.4L15.5393 34.8C15.8059 35.0651 16.1634 35.2189 16.5393 35.23C16.9145 35.216 17.271 35.0627 17.5393 34.8L18.3093 34.03C18.4471 33.8941 18.5566 33.7322 18.6314 33.5537C18.7061 33.3752 18.7446 33.1835 18.7446 32.99C18.7446 32.7964 18.7061 32.6048 18.6314 32.4263C18.5566 32.2477 18.4471 32.0858 18.3093 31.95L15.9993 29.6L23.1293 22.47L25.4693 24.81C25.7343 25.0788 26.092 25.2362 26.4693 25.25C26.8472 25.2393 27.206 25.0814 27.4693 24.81L28.2493 24.04C28.5144 23.7734 28.6682 23.4158 28.6793 23.04C28.6662 22.6646 28.5128 22.3077 28.2493 22.04L27.8493 21.64C28.0451 21.5801 28.2235 21.4737 28.3693 21.33L28.9993 20.68ZM14.3093 34.42L13.7493 34.99C13.6388 35.0993 13.4897 35.1606 13.3343 35.1606C13.1789 35.1606 13.0297 35.0993 12.9193 34.99L7.77926 29.86C7.6723 29.7483 7.61259 29.5996 7.61259 29.445C7.61259 29.2903 7.6723 29.1417 7.77926 29.03L8.34926 28.46C8.46095 28.353 8.60962 28.2933 8.76426 28.2933C8.91891 28.2933 9.06758 28.353 9.17926 28.46L11.7493 31L14.3093 33.56C14.368 33.6152 14.4148 33.6818 14.4468 33.7557C14.4788 33.8297 14.4953 33.9094 14.4953 33.99C14.4953 34.0706 14.4788 34.1503 14.4468 34.2242C14.4148 34.2982 14.368 34.3648 14.3093 34.42ZM17.8793 32.42C17.9509 32.4915 18.0078 32.5765 18.0466 32.67C18.0854 32.7635 18.1053 32.8637 18.1053 32.965C18.1053 33.0662 18.0854 33.1665 18.0466 33.26C18.0078 33.3535 17.9509 33.4385 17.8793 33.51L17.0993 34.28C17.0284 34.3529 16.9437 34.4108 16.8501 34.4503C16.7565 34.4899 16.6559 34.5103 16.5543 34.5103C16.4526 34.5103 16.352 34.4899 16.2584 34.4503C16.1648 34.4108 16.0801 34.3529 16.0093 34.28L12.2393 30.51L8.46926 26.76C8.3976 26.6885 8.34075 26.6035 8.30196 26.51C8.26317 26.4165 8.24321 26.3162 8.24321 26.215C8.24321 26.1137 8.26317 26.0135 8.30196 25.92C8.34075 25.8264 8.3976 25.7415 8.46926 25.67L9.23926 24.9C9.38612 24.7553 9.58314 24.6729 9.78926 24.67C9.99582 24.6708 10.1936 24.7535 10.3393 24.9L17.8793 32.42ZM28.0893 23C28.09 23.1024 28.07 23.204 28.0304 23.2985C27.9909 23.393 27.9327 23.4785 27.8593 23.55L27.0893 24.32C27.0177 24.3916 26.9328 24.4485 26.8393 24.4873C26.7458 24.5261 26.6455 24.546 26.5443 24.546C26.443 24.546 26.3428 24.5261 26.2493 24.4873C26.1557 24.4485 26.0708 24.3916 25.9993 24.32L18.4593 16.78C18.3876 16.7085 18.3308 16.6235 18.292 16.53C18.2532 16.4365 18.2332 16.3362 18.2332 16.235C18.2332 16.1337 18.2532 16.0335 18.292 15.94C18.3308 15.8465 18.3876 15.7615 18.4593 15.69L19.2293 14.91C19.3762 14.77 19.5713 14.6919 19.7743 14.6919C19.9772 14.6919 20.1724 14.77 20.3193 14.91L27.8593 22.46C27.9324 22.5295 27.9905 22.6133 28.0301 22.7062C28.0696 22.7991 28.0898 22.899 28.0893 23ZM27.1493 20.76L21.9993 15.62C21.89 15.5095 21.8286 15.3604 21.8286 15.205C21.8286 15.0496 21.89 14.9004 21.9993 14.79L22.5693 14.23C22.6797 14.1207 22.8289 14.0594 22.9843 14.0594C23.1397 14.0594 23.2888 14.1207 23.3993 14.23L28.5293 19.36C28.6386 19.4704 28.6999 19.6196 28.6999 19.775C28.6999 19.9304 28.6386 20.0795 28.5293 20.19L27.9593 20.76C27.8487 20.8612 27.7042 20.9173 27.5543 20.9173C27.4044 20.9173 27.2599 20.8612 27.1493 20.76Z"/>
</mask>
<path d="M28.9993 20.68C29.1208 20.5616 29.2174 20.4201 29.2834 20.2639C29.3494 20.1076 29.3834 19.9396 29.3834 19.77C29.3834 19.6003 29.3494 19.4324 29.2834 19.2761C29.2174 19.1198 29.1208 18.9783 28.9993 18.86L23.8693 13.73C23.6275 13.4894 23.3003 13.3543 22.9593 13.3543C22.6182 13.3543 22.291 13.4894 22.0493 13.73L21.4793 14.3C21.3355 14.4458 21.2292 14.6242 21.1693 14.82L20.7693 14.42C20.6334 14.2821 20.4715 14.1726 20.293 14.0979C20.1144 14.0232 19.9228 13.9847 19.7293 13.9847C19.5357 13.9847 19.3441 14.0232 19.1656 14.0979C18.987 14.1726 18.8251 14.2821 18.6893 14.42L17.9193 15.19C17.6457 15.467 17.4923 15.8406 17.4923 16.23C17.4923 16.6193 17.6457 16.993 17.9193 17.27L20.2593 19.62L13.1293 26.75L10.8293 24.4C10.5523 24.1264 10.1786 23.973 9.78926 23.973C9.39993 23.973 9.02627 24.1264 8.74926 24.4L7.99926 25.18C7.86139 25.3158 7.75191 25.4777 7.67717 25.6563C7.60244 25.8348 7.56396 26.0264 7.56396 26.22C7.56396 26.4135 7.60244 26.6051 7.67717 26.7837C7.75191 26.9622 7.86139 27.1241 7.99926 27.26L8.39926 27.66C8.20038 27.7195 8.01864 27.8258 7.86926 27.97L7.30926 28.53C7.06866 28.7717 6.93359 29.0989 6.93359 29.44C6.93359 29.781 7.06866 30.1082 7.30926 30.35L12.4393 35.48C12.5583 35.6003 12.7 35.6958 12.8562 35.761C13.0124 35.8262 13.18 35.8598 13.3493 35.8598C13.5185 35.8598 13.6861 35.8262 13.8423 35.761C13.9985 35.6958 14.1402 35.6003 14.2593 35.48L14.8293 34.92C14.973 34.7742 15.0794 34.5958 15.1393 34.4L15.5393 34.8C15.8059 35.0651 16.1634 35.2189 16.5393 35.23C16.9145 35.216 17.271 35.0627 17.5393 34.8L18.3093 34.03C18.4471 33.8941 18.5566 33.7322 18.6314 33.5537C18.7061 33.3752 18.7446 33.1835 18.7446 32.99C18.7446 32.7964 18.7061 32.6048 18.6314 32.4263C18.5566 32.2477 18.4471 32.0858 18.3093 31.95L15.9993 29.6L23.1293 22.47L25.4693 24.81C25.7343 25.0788 26.092 25.2362 26.4693 25.25C26.8472 25.2393 27.206 25.0814 27.4693 24.81L28.2493 24.04C28.5144 23.7734 28.6682 23.4158 28.6793 23.04C28.6662 22.6646 28.5128 22.3077 28.2493 22.04L27.8493 21.64C28.0451 21.5801 28.2235 21.4737 28.3693 21.33L28.9993 20.68ZM14.3093 34.42L13.7493 34.99C13.6388 35.0993 13.4897 35.1606 13.3343 35.1606C13.1789 35.1606 13.0297 35.0993 12.9193 34.99L7.77926 29.86C7.6723 29.7483 7.61259 29.5996 7.61259 29.445C7.61259 29.2903 7.6723 29.1417 7.77926 29.03L8.34926 28.46C8.46095 28.353 8.60962 28.2933 8.76426 28.2933C8.91891 28.2933 9.06758 28.353 9.17926 28.46L11.7493 31L14.3093 33.56C14.368 33.6152 14.4148 33.6818 14.4468 33.7557C14.4788 33.8297 14.4953 33.9094 14.4953 33.99C14.4953 34.0706 14.4788 34.1503 14.4468 34.2242C14.4148 34.2982 14.368 34.3648 14.3093 34.42ZM17.8793 32.42C17.9509 32.4915 18.0078 32.5765 18.0466 32.67C18.0854 32.7635 18.1053 32.8637 18.1053 32.965C18.1053 33.0662 18.0854 33.1665 18.0466 33.26C18.0078 33.3535 17.9509 33.4385 17.8793 33.51L17.0993 34.28C17.0284 34.3529 16.9437 34.4108 16.8501 34.4503C16.7565 34.4899 16.6559 34.5103 16.5543 34.5103C16.4526 34.5103 16.352 34.4899 16.2584 34.4503C16.1648 34.4108 16.0801 34.3529 16.0093 34.28L12.2393 30.51L8.46926 26.76C8.3976 26.6885 8.34075 26.6035 8.30196 26.51C8.26317 26.4165 8.24321 26.3162 8.24321 26.215C8.24321 26.1137 8.26317 26.0135 8.30196 25.92C8.34075 25.8264 8.3976 25.7415 8.46926 25.67L9.23926 24.9C9.38612 24.7553 9.58314 24.6729 9.78926 24.67C9.99582 24.6708 10.1936 24.7535 10.3393 24.9L17.8793 32.42ZM28.0893 23C28.09 23.1024 28.07 23.204 28.0304 23.2985C27.9909 23.393 27.9327 23.4785 27.8593 23.55L27.0893 24.32C27.0177 24.3916 26.9328 24.4485 26.8393 24.4873C26.7458 24.5261 26.6455 24.546 26.5443 24.546C26.443 24.546 26.3428 24.5261 26.2493 24.4873C26.1557 24.4485 26.0708 24.3916 25.9993 24.32L18.4593 16.78C18.3876 16.7085 18.3308 16.6235 18.292 16.53C18.2532 16.4365 18.2332 16.3362 18.2332 16.235C18.2332 16.1337 18.2532 16.0335 18.292 15.94C18.3308 15.8465 18.3876 15.7615 18.4593 15.69L19.2293 14.91C19.3762 14.77 19.5713 14.6919 19.7743 14.6919C19.9772 14.6919 20.1724 14.77 20.3193 14.91L27.8593 22.46C27.9324 22.5295 27.9905 22.6133 28.0301 22.7062C28.0696 22.7991 28.0898 22.899 28.0893 23ZM27.1493 20.76L21.9993 15.62C21.89 15.5095 21.8286 15.3604 21.8286 15.205C21.8286 15.0496 21.89 14.9004 21.9993 14.79L22.5693 14.23C22.6797 14.1207 22.8289 14.0594 22.9843 14.0594C23.1397 14.0594 23.2888 14.1207 23.3993 14.23L28.5293 19.36C28.6386 19.4704 28.6999 19.6196 28.6999 19.775C28.6999 19.9304 28.6386 20.0795 28.5293 20.19L27.9593 20.76C27.8487 20.8612 27.7042 20.9173 27.5543 20.9173C27.4044 20.9173 27.2599 20.8612 27.1493 20.76Z" fill="#B39365" stroke="black" mask="url(#path-2-inside-1_607_485)"/>
<path d="M17.8802 33.53L17.1002 34.3C17.0294 34.3729 16.9446 34.4308 16.851 34.4704C16.7574 34.5099 16.6568 34.5303 16.5552 34.5303C16.4536 34.5303 16.353 34.5099 16.2594 34.4704C16.1658 34.4308 16.081 34.3729 16.0102 34.3L12.2402 30.53L8.4702 26.76C8.39854 26.6885 8.34169 26.6035 8.3029 26.51C8.26411 26.4165 8.24414 26.3162 8.24414 26.215C8.24414 26.1137 8.26411 26.0135 8.3029 25.92C8.34169 25.8265 8.39854 25.7415 8.4702 25.67L9.2402 24.9C9.38705 24.7553 9.58408 24.6729 9.7902 24.67C9.99675 24.6708 10.1945 24.7535 10.3402 24.9L17.8802 32.44C17.9519 32.5115 18.0087 32.5965 18.0475 32.69C18.0863 32.7835 18.1063 32.8837 18.1063 32.985C18.1063 33.0862 18.0863 33.1865 18.0475 33.28C18.0087 33.3735 17.9519 33.4585 17.8802 33.53Z" fill="white"/>
<path d="M14.31 34.42L13.75 34.99C13.6395 35.0993 13.4904 35.1606 13.335 35.1606C13.1795 35.1606 13.0304 35.0993 12.92 34.99L7.77995 29.86C7.67299 29.7483 7.61328 29.5996 7.61328 29.445C7.61328 29.2904 7.67299 29.1417 7.77995 29.03L8.34995 28.46C8.46164 28.353 8.61031 28.2933 8.76495 28.2933C8.91959 28.2933 9.06827 28.353 9.17995 28.46L11.75 31L14.31 33.56C14.3687 33.6152 14.4155 33.6818 14.4475 33.7558C14.4795 33.8297 14.496 33.9094 14.496 33.99C14.496 34.0706 14.4795 34.1503 14.4475 34.2243C14.4155 34.2982 14.3687 34.3648 14.31 34.42Z" fill="white"/>
<path d="M22.5837 14.2363L22.0248 14.7946C21.7943 15.0249 21.7941 15.3984 22.0244 15.629L27.1482 20.7582C27.3785 20.9887 27.7521 20.9889 27.9826 20.7586L28.5415 20.2003C28.7721 19.97 28.7723 19.5964 28.542 19.3659L23.4181 14.2367C23.1878 14.0062 22.8143 14.006 22.5837 14.2363Z" fill="white"/>
<path d="M28.0904 23C28.0911 23.1024 28.0711 23.204 28.0316 23.2985C27.9921 23.393 27.9339 23.4785 27.8604 23.55L27.0904 24.32C27.0189 24.3916 26.934 24.4485 26.8404 24.4873C26.7469 24.5261 26.6467 24.546 26.5454 24.546C26.4442 24.546 26.3439 24.5261 26.2504 24.4873C26.1569 24.4485 26.072 24.3916 26.0004 24.32L18.4604 16.78C18.3888 16.7085 18.3319 16.6235 18.2931 16.53C18.2543 16.4365 18.2344 16.3362 18.2344 16.235C18.2344 16.1337 18.2543 16.0335 18.2931 15.94C18.3319 15.8465 18.3888 15.7615 18.4604 15.69L19.2304 14.91C19.3773 14.77 19.5725 14.6919 19.7754 14.6919C19.9784 14.6919 20.1735 14.77 20.3204 14.91L27.8604 22.46C27.9336 22.5296 27.9917 22.6133 28.0313 22.7062C28.0708 22.7991 28.091 22.8991 28.0904 23Z" fill="white"/>
<path d="M41.8408 22.28C41.962 22.1625 42.0585 22.0218 42.1243 21.8664C42.1902 21.7109 42.2241 21.5438 42.2241 21.375C42.2241 21.2061 42.1902 21.039 42.1243 20.8835C42.0585 20.7281 41.962 20.5874 41.8408 20.47L36.7108 15.33C36.469 15.0894 36.1418 14.9543 35.8008 14.9543C35.4597 14.9543 35.1325 15.0894 34.8908 15.33L34.3208 15.9C34.177 16.0458 34.0707 16.2242 34.0108 16.42L33.6208 16.02C33.4841 15.8818 33.3213 15.7721 33.142 15.6972C32.9626 15.6224 32.7701 15.5838 32.5758 15.5838C32.3814 15.5838 32.189 15.6224 32.0096 15.6972C31.8302 15.7721 31.6675 15.8818 31.5308 16.02L30.7608 16.79C30.4872 17.067 30.3338 17.4406 30.3338 17.83C30.3338 18.2193 30.4872 18.5929 30.7608 18.87L33.1008 21.22L26.0008 28.35L23.6308 26C23.4942 25.8633 23.3321 25.7549 23.1537 25.6809C22.9752 25.6069 22.7839 25.5688 22.5908 25.5688C22.3976 25.5688 22.2063 25.6069 22.0279 25.6809C21.8494 25.7549 21.6873 25.8633 21.5508 26L20.7808 26.77C20.6426 26.9067 20.5329 27.0694 20.458 27.2488C20.3832 27.4281 20.3446 27.6206 20.3446 27.815C20.3446 28.0093 20.3832 28.2018 20.458 28.3811C20.5329 28.5605 20.6426 28.7233 20.7808 28.86L21.1808 29.26C20.984 29.3176 20.805 29.4242 20.6608 29.57L20.0908 30.13C19.9704 30.249 19.8749 30.3907 19.8097 30.5469C19.7445 30.7031 19.7109 30.8707 19.7109 31.04C19.7109 31.2092 19.7445 31.3768 19.8097 31.533C19.8749 31.6892 19.9704 31.8309 20.0908 31.95L25.2208 37.08C25.3398 37.2003 25.4815 37.2958 25.6377 37.361C25.7939 37.4262 25.9615 37.4598 26.1308 37.4598C26.3 37.4598 26.4676 37.4262 26.6238 37.361C26.78 37.2958 26.9217 37.2003 27.0408 37.08L27.6108 36.52C27.7545 36.3741 27.8609 36.1957 27.9208 36L28.3208 36.4C28.5874 36.6651 28.9449 36.8189 29.3208 36.83C29.696 36.8159 30.0525 36.6626 30.3208 36.4L31.0908 35.62C31.2286 35.4841 31.3381 35.3222 31.4129 35.1437C31.4876 34.9651 31.5261 34.7735 31.5261 34.58C31.5261 34.3864 31.4876 34.1948 31.4129 34.0162C31.3381 33.8377 31.2286 33.6758 31.0908 33.54L28.8308 31.2L36.0008 24.07L38.3408 26.41C38.6046 26.6805 38.9631 26.8382 39.3408 26.85C39.7187 26.8393 40.0776 26.6814 40.3408 26.41L41.1208 25.64C41.2574 25.5034 41.3659 25.3413 41.4398 25.1629C41.5138 24.9844 41.5519 24.7931 41.5519 24.6C41.5519 24.4068 41.5138 24.2155 41.4398 24.037C41.3659 23.8586 41.2574 23.6965 41.1208 23.56L40.7208 23.16C40.9166 23.1 41.095 22.9937 41.2408 22.85L41.8408 22.28ZM27.1108 36L26.5508 36.57C26.4403 36.6793 26.2912 36.7406 26.1358 36.7406C25.9804 36.7406 25.8312 36.6793 25.7208 36.57L20.5808 31.44C20.5262 31.3846 20.483 31.319 20.4538 31.2469C20.4247 31.1748 20.41 31.0977 20.4108 31.02C20.4108 30.8662 20.472 30.7187 20.5808 30.61L21.1508 30.04C21.2625 29.933 21.4111 29.8733 21.5658 29.8733C21.7204 29.8733 21.8691 29.933 21.9808 30.04L27.1108 35.17C27.2201 35.2804 27.2814 35.4295 27.2814 35.585C27.2814 35.7404 27.2201 35.8895 27.1108 36ZM30.6808 34C30.7524 34.0715 30.8093 34.1564 30.8481 34.2499C30.8869 34.3435 30.9068 34.4437 30.9068 34.545C30.9068 34.6462 30.8869 34.7464 30.8481 34.84C30.8093 34.9335 30.7524 35.0184 30.6808 35.09L29.9008 35.86C29.8299 35.9328 29.7452 35.9908 29.6516 36.0303C29.558 36.0699 29.4574 36.0903 29.3558 36.0903C29.2541 36.0903 29.1536 36.0699 29.0599 36.0303C28.9663 35.9908 28.8816 35.9328 28.8108 35.86L27.6108 34.66L22.4708 29.53L21.2708 28.32C21.1991 28.2484 21.1423 28.1635 21.1035 28.07C21.0647 27.9764 21.0447 27.8762 21.0447 27.775C21.0447 27.6737 21.0647 27.5735 21.1035 27.4799C21.1423 27.3864 21.1991 27.3015 21.2708 27.23L22.0508 26.46C22.12 26.3863 22.2037 26.3279 22.2966 26.2883C22.3896 26.2487 22.4897 26.2288 22.5908 26.23C22.6932 26.2292 22.7947 26.2492 22.8893 26.2888C22.9838 26.3283 23.0693 26.3865 23.1408 26.46L26.9108 30.23L28.0908 31.41L30.6808 34ZM40.8908 24.6C40.8915 24.7024 40.8715 24.8039 40.832 24.8984C40.7924 24.993 40.7342 25.0785 40.6608 25.15L39.8908 25.92C39.8193 25.9916 39.7343 26.0485 39.6408 26.0873C39.5473 26.126 39.447 26.146 39.3458 26.146C39.2445 26.146 39.1443 26.126 39.0508 26.0873C38.9572 26.0485 38.8723 25.9916 38.8008 25.92L36.2108 23.33L35.0008 22.15L31.2208 18.38C31.1491 18.3084 31.0923 18.2235 31.0535 18.13C31.0147 18.0364 30.9947 17.9362 30.9947 17.835C30.9947 17.7337 31.0147 17.6335 31.0535 17.5399C31.0923 17.4464 31.1491 17.3615 31.2208 17.29L32.0008 16.51C32.0723 16.4383 32.1572 16.3814 32.2508 16.3427C32.3443 16.3039 32.4445 16.2839 32.5458 16.2839C32.647 16.2839 32.7473 16.3039 32.8408 16.3427C32.9343 16.3814 33.0192 16.4383 33.0908 16.51L40.6308 24.05C40.7097 24.1188 40.7735 24.2032 40.8182 24.2978C40.8629 24.3924 40.8876 24.4953 40.8908 24.6ZM40.0008 22.36L34.8708 17.22C34.7615 17.1095 34.7001 16.9604 34.7001 16.805C34.7001 16.6495 34.7615 16.5004 34.8708 16.39L35.4408 15.83C35.4932 15.7736 35.5566 15.7287 35.6272 15.698C35.6977 15.6673 35.7738 15.6514 35.8508 15.6514C35.9277 15.6514 36.0038 15.6673 36.0744 15.698C36.1449 15.7287 36.2084 15.7736 36.2608 15.83L41.3508 21C41.4601 21.1104 41.5214 21.2595 41.5214 21.415C41.5214 21.5704 41.4601 21.7195 41.3508 21.83L40.7808 22.4C40.6674 22.4875 40.5264 22.5316 40.3834 22.5242C40.2403 22.5169 40.1046 22.4586 40.0008 22.36Z" fill="#B39365"/>
<path d="M41.3491 21.79L40.7791 22.36C40.6674 22.4669 40.5187 22.5267 40.3641 22.5267C40.2094 22.5267 40.0607 22.4669 39.9491 22.36L34.8191 17.22C34.7098 17.1095 34.6484 16.9604 34.6484 16.805C34.6484 16.6496 34.7098 16.5004 34.8191 16.39L35.3891 15.83C35.4415 15.7737 35.5049 15.7287 35.5755 15.698C35.646 15.6673 35.7221 15.6514 35.7991 15.6514C35.876 15.6514 35.9521 15.6673 36.0227 15.698C36.0932 15.7287 36.1567 15.7737 36.2091 15.83L41.3491 21C41.4467 21.1084 41.5008 21.2491 41.5008 21.395C41.5008 21.5409 41.4467 21.6816 41.3491 21.79Z" fill="white"/>
<path d="M40.8902 24.6C40.8909 24.7024 40.8709 24.804 40.8314 24.8985C40.7919 24.993 40.7336 25.0786 40.6602 25.15L39.8902 25.92C39.8187 25.9917 39.7337 26.0485 39.6402 26.0873C39.5467 26.1261 39.4464 26.146 39.3452 26.146C39.244 26.146 39.1437 26.1261 39.0502 26.0873C38.9567 26.0485 38.8717 25.9917 38.8002 25.92L36.2102 23.33L35.0002 22.15L31.2202 18.38C31.1485 18.3085 31.0917 18.2235 31.0529 18.13C31.0141 18.0365 30.9941 17.9362 30.9941 17.835C30.9941 17.7337 31.0141 17.6335 31.0529 17.54C31.0917 17.4465 31.1485 17.3615 31.2202 17.29L32.0002 16.51C32.0717 16.4383 32.1567 16.3815 32.2502 16.3427C32.3437 16.3039 32.444 16.2839 32.5452 16.2839C32.6464 16.2839 32.7467 16.3039 32.8402 16.3427C32.9337 16.3815 33.0187 16.4383 33.0902 16.51L40.6302 24.05C40.7091 24.1188 40.7729 24.2032 40.8176 24.2978C40.8624 24.3925 40.8871 24.4954 40.8902 24.6Z" fill="white"/>
<path d="M30.679 35.13L29.899 35.9C29.8282 35.9729 29.7435 36.0308 29.6499 36.0704C29.5562 36.1099 29.4557 36.1303 29.354 36.1303C29.2524 36.1303 29.1518 36.1099 29.0582 36.0704C28.9646 36.0308 28.8799 35.9729 28.809 35.9L27.609 34.7L22.469 29.57L21.269 28.36C21.1974 28.2885 21.1405 28.2035 21.1017 28.11C21.0629 28.0165 21.043 27.9162 21.043 27.815C21.043 27.7138 21.0629 27.6135 21.1017 27.52C21.1405 27.4265 21.1974 27.3415 21.269 27.27L22.049 26.5C22.1182 26.4264 22.2019 26.3679 22.2949 26.3283C22.3878 26.2888 22.488 26.2689 22.589 26.27C22.6915 26.2693 22.793 26.2893 22.8875 26.3288C22.982 26.3683 23.0676 26.4266 23.139 26.5L26.909 30.27L28.089 31.45L30.679 34C30.7569 34.0721 30.819 34.1595 30.8615 34.2567C30.904 34.3539 30.9259 34.4589 30.9259 34.565C30.9259 34.6711 30.904 34.7761 30.8615 34.8733C30.819 34.9705 30.7569 35.0579 30.679 35.13Z" fill="white"/>
<path d="M27.1102 36L26.5502 36.57C26.4397 36.6793 26.2906 36.7406 26.1352 36.7406C25.9798 36.7406 25.8306 36.6793 25.7202 36.57L20.5802 31.44C20.5256 31.3846 20.4824 31.319 20.4533 31.2469C20.4241 31.1749 20.4094 31.0977 20.4102 31.02C20.4102 30.8662 20.4714 30.7187 20.5802 30.61L21.1502 30.04C21.2619 29.933 21.4105 29.8733 21.5652 29.8733C21.7198 29.8733 21.8685 29.933 21.9802 30.04L27.1102 35.17C27.2195 35.2804 27.2808 35.4296 27.2808 35.585C27.2808 35.7404 27.2195 35.8895 27.1102 36Z" fill="white"/>
<path opacity="0.13" d="M49.7699 28.4C48.992 34.067 46.2941 39.2958 42.1267 43.214C37.9592 47.1321 32.5741 49.5027 26.8699 49.93L12.4199 35.48C12.5433 35.6033 12.6893 35.7018 12.8499 35.77C13.0029 35.8296 13.1657 35.8601 13.3299 35.86C13.4973 35.8593 13.6632 35.8288 13.8199 35.77C13.9775 35.7016 14.1201 35.6031 14.2399 35.48L14.8099 34.92C14.9537 34.7742 15.06 34.5958 15.1199 34.4L15.5199 34.8C15.7865 35.0652 16.1441 35.2189 16.5199 35.23C16.8951 35.216 17.2516 35.0627 17.5199 34.8L18.2899 34.02C18.5635 33.743 18.7169 33.3693 18.7169 32.98C18.7169 32.5907 18.5635 32.217 18.2899 31.94L15.9999 29.6L23.1299 22.47L25.4699 24.81C25.7349 25.0788 26.0927 25.2362 26.4699 25.25C26.8479 25.2393 27.2067 25.0814 27.4699 24.81L28.2399 24.04C28.379 23.9049 28.4896 23.7432 28.5651 23.5645C28.6406 23.3859 28.6795 23.1939 28.6795 23C28.6795 22.8061 28.6406 22.6141 28.5651 22.4354C28.4896 22.2568 28.379 22.0951 28.2399 21.96L27.8499 21.56C27.9963 21.5184 28.1326 21.4469 28.2499 21.35L28.3699 21.25L28.9299 20.69C29.1705 20.4483 29.3056 20.1211 29.3056 19.78C29.3056 19.4389 29.1705 19.1117 28.9299 18.87L32.1399 22.08L25.9999 28.35L23.6299 26C23.4934 25.8633 23.3313 25.7549 23.1528 25.6809C22.9744 25.607 22.7831 25.5689 22.5899 25.5689C22.3967 25.5689 22.2055 25.607 22.027 25.6809C21.8486 25.7549 21.6864 25.8633 21.5499 26L20.7799 26.77C20.6421 26.9058 20.5326 27.0677 20.4578 27.2463C20.3831 27.4248 20.3446 27.6164 20.3446 27.81C20.3446 28.0035 20.3831 28.1952 20.4578 28.3737C20.5326 28.5522 20.6421 28.7142 20.7799 28.85L21.1799 29.26C20.9831 29.3176 20.8042 29.4243 20.6599 29.57L20.0899 30.13C19.8496 30.3723 19.7132 30.6987 19.7099 31.04C19.7122 31.3815 19.8487 31.7083 20.0899 31.95L25.2199 37.08C25.339 37.2003 25.4807 37.2959 25.6369 37.3611C25.7931 37.4263 25.9607 37.4598 26.1299 37.4598C26.2992 37.4598 26.4668 37.4263 26.623 37.3611C26.7792 37.2959 26.9209 37.2003 27.0399 37.08L27.6099 36.52C27.7537 36.3742 27.86 36.1958 27.9199 36L28.3199 36.4C28.5871 36.6643 28.9443 36.8179 29.3199 36.83C29.6951 36.816 30.0516 36.6627 30.3199 36.4L31.0899 35.62C31.2278 35.4841 31.3373 35.3223 31.412 35.1437C31.4867 34.9652 31.5252 34.7735 31.5252 34.58C31.5252 34.3864 31.4867 34.1948 31.412 34.0163C31.3373 33.8377 31.2278 33.6758 31.0899 33.54L28.8299 31.2L35.9999 24.07L38.3399 26.41C38.5115 26.5843 38.725 26.7117 38.9599 26.78C39.0964 26.8195 39.2378 26.8397 39.3799 26.84C39.5221 26.8404 39.6636 26.8202 39.7999 26.78C40.036 26.7143 40.2501 26.5865 40.4199 26.41L41.1999 25.64C41.3366 25.5035 41.445 25.3414 41.519 25.1629C41.593 24.9845 41.631 24.7932 41.631 24.6C41.631 24.4068 41.593 24.2155 41.519 24.0371C41.445 23.8586 41.3366 23.6965 41.1999 23.56L40.7999 23.16C40.9939 23.0961 41.1715 22.9903 41.3199 22.85L41.8799 22.28C42.0273 22.1352 42.1372 21.9565 42.1999 21.7596C42.2627 21.5627 42.2764 21.3534 42.2399 21.15C42.2399 21.15 42.2399 21.09 42.2399 21.06C42.2399 21.06 42.2399 21.01 42.2399 20.98C42.2081 20.8962 42.1679 20.8158 42.1199 20.74C42.1035 20.7078 42.0833 20.6776 42.0599 20.65L41.9899 20.57L49.7699 28.4Z" fill="#010101"/>
</g>
<defs>
<clipPath id="clip0_607_485">
<rect width="50" height="50" fill="white"/>
</clipPath>
</defs>
</svg>
